<?xml version="1.0" encoding="UTF-8" ?>
<!DOCTYPE svg PUBLIC "-//W3C//DTD SVG 1.1//EN" "http://www.w3.org/Graphics/SVG/1.1/DTD/svg11.dtd">
<svg width="25pt" height="25pt" viewBox="0 0 623 619" version="1.1" xmlns="http://www.w3.org/2000/svg">
<g id="#e4dbccff">
</g>
<g id="#e7cb9cff">
</g>
<g id="#ec9e17ff">
<path fill="#ec9e17" opacity="1.00" d=" M 287.45 7.54 C 336.70 3.65 386.79 12.13 432.06 31.86 C 468.73 47.82 502.16 71.26 529.47 100.48 C 558.18 130.16 580.01 166.19 594.28 204.87 C 609.45 246.28 615.25 291.08 611.18 334.99 C 604.88 405.77 572.78 474.16 521.46 523.46 C 491.34 552.94 455.04 576.24 415.29 590.39 C 381.38 603.18 345.09 609.00 308.92 609.12 C 297.23 608.41 285.49 608.37 273.87 606.76 C 241.70 602.56 210.14 593.43 180.89 579.34 C 111.09 546.15 54.97 484.93 28.77 412.14 C 17.10 380.78 10.69 347.43 10.18 313.95 C 9.42 306.62 10.27 299.28 10.45 291.94 C 12.63 247.19 25.38 203.14 46.77 163.81 C 65.12 129.83 90.39 99.71 120.00 74.98 C 153.64 47.35 193.34 26.89 235.68 16.52 C 252.59 11.84 270.01 9.26 287.45 7.54 M 125.03 134.08 C 79.67 182.25 54.26 248.77 56.67 314.95 C 58.15 379.38 85.32 442.80 131.15 488.17 C 126.89 481.56 123.76 474.05 123.88 466.06 C 123.80 365.39 123.89 264.73 123.84 164.06 C 123.88 158.97 124.27 153.77 126.13 148.98 C 130.44 136.80 142.27 127.92 155.05 126.59 C 170.22 124.82 185.89 134.51 191.02 148.90 C 193.49 155.28 193.40 162.23 193.34 168.97 C 193.33 265.66 193.33 362.35 193.34 459.04 C 193.49 466.46 193.32 474.18 190.03 481.00 C 184.13 494.17 169.24 502.59 154.92 500.90 C 148.01 500.24 141.67 497.03 136.13 493.00 C 148.72 504.61 162.21 515.31 176.82 524.28 C 225.64 554.67 284.98 568.05 342.08 560.66 C 381.12 556.17 418.82 541.94 451.70 520.52 C 447.51 518.98 443.75 516.52 440.28 513.74 C 367.87 455.79 295.37 397.96 223.04 339.90 C 213.54 331.76 208.94 318.11 212.11 305.93 C 213.88 297.75 218.97 290.62 225.43 285.44 C 295.33 229.60 365.17 173.70 435.07 117.86 C 440.22 114.03 444.87 109.25 451.03 107.06 C 455.44 105.23 460.21 104.59 464.96 104.52 C 420.07 70.95 364.16 51.96 307.99 53.06 C 239.36 53.59 171.56 83.66 125.03 134.08 M 498.27 134.80 C 498.45 137.20 498.61 139.61 498.63 142.02 C 498.64 254.87 498.61 367.73 498.64 480.59 C 531.31 445.24 553.55 400.42 561.89 353.01 C 569.28 312.26 566.67 269.66 553.89 230.23 C 542.61 194.85 523.38 162.14 498.27 134.80 M 301.43 313.55 C 343.88 347.81 386.57 381.78 429.13 415.89 C 429.14 347.79 429.16 279.69 429.12 211.60 C 386.53 245.54 344.09 279.68 301.43 313.55 Z" />
</g>
<g id="#2e2d2cff">
</g>
</svg>
