<?xml version="1.0" encoding="UTF-8" ?>
<!DOCTYPE svg PUBLIC "-//W3C//DTD SVG 1.1//EN" "http://www.w3.org/Graphics/SVG/1.1/DTD/svg11.dtd">
<svg width="25pt" height="25pt" viewBox="0 0 623 617" version="1.1" xmlns="http://www.w3.org/2000/svg">
<g id="#e5dbccff">
<path fill="#e5dbcc" opacity="1.00" d=" M 51.79 111.84 C 52.41 111.81 53.67 111.76 54.30 111.73 C 54.02 112.11 53.46 112.87 53.19 113.24 C 52.90 117.46 52.86 121.72 53.18 125.93 L 54.00 127.37 C 53.53 127.20 52.57 126.86 52.09 126.69 C 51.56 121.76 51.80 116.79 51.79 111.84 Z" />
</g>
<g id="#e7cb9cff">
</g>
<g id="#ec9e17ff">
<path fill="#ec9e17" opacity="1.00" d=" M 288.35 8.59 C 310.23 6.68 332.26 7.74 354.03 10.41 C 413.16 18.67 469.72 44.93 514.04 84.96 C 541.86 109.83 564.98 139.96 581.68 173.33 C 615.14 238.99 622.94 317.13 603.34 388.15 C 591.65 430.87 570.58 471.04 541.71 504.65 C 517.68 532.41 488.80 556.10 456.46 573.53 C 390.16 609.97 309.78 619.79 236.66 600.43 C 156.64 579.81 86.31 524.48 47.40 451.59 C 24.98 409.70 12.32 362.52 11.60 314.97 C 10.48 266.93 21.28 218.70 42.60 175.63 C 70.18 119.51 115.77 72.35 171.05 43.09 C 207.31 23.85 247.41 11.90 288.35 8.59 M 239.00 64.93 C 220.96 70.38 203.68 78.14 187.15 87.16 C 152.54 107.13 122.32 134.93 100.31 168.34 C 72.02 210.78 56.97 261.93 58.00 312.96 C 58.74 374.76 83.05 436.09 125.26 481.28 C 125.45 371.83 125.25 262.37 125.36 152.92 C 125.32 146.65 126.95 140.37 130.12 134.95 C 137.94 121.21 155.85 114.03 170.89 119.34 C 179.15 121.74 185.30 128.02 191.94 133.13 C 260.92 188.49 330.05 243.64 399.09 298.92 C 409.12 306.79 414.69 320.23 412.31 332.86 C 410.52 341.17 406.18 349.17 399.23 354.25 C 326.95 412.05 254.81 470.02 182.40 527.64 C 196.60 536.70 212.24 543.33 228.03 549.11 C 270.77 564.32 317.59 567.43 362.09 558.80 C 398.67 551.53 433.76 536.24 463.71 513.97 C 453.81 513.62 444.28 508.58 438.12 500.88 C 433.02 494.43 430.58 486.18 430.64 478.02 C 430.61 379.01 430.64 280.00 430.62 180.99 C 430.54 174.30 430.61 167.38 433.23 161.10 C 438.78 146.80 454.75 137.42 469.95 139.73 C 482.10 141.33 493.14 149.79 497.57 161.26 C 501.01 169.75 499.94 179.08 500.12 188.01 C 500.04 285.87 500.27 383.74 500.00 481.60 C 533.99 445.03 556.60 398.14 564.37 348.83 C 571.92 301.07 565.76 251.11 546.13 206.86 C 533.98 178.96 516.69 153.32 495.47 131.51 C 455.36 89.73 400.41 62.66 342.95 55.76 C 308.16 51.66 272.52 54.69 239.00 64.93 M 194.85 224.62 C 194.81 292.67 194.80 360.73 194.85 428.79 C 237.44 394.78 279.95 360.68 322.52 326.65 C 279.97 292.64 237.42 258.61 194.85 224.62 Z" />
</g>
<g id="#2e2d2cff">
<path fill="#2e2d2c" opacity="1.00" d=" M 53.19 113.24 C 56.20 116.05 59.00 119.07 61.90 121.99 C 60.94 122.00 59.02 122.01 58.07 122.02 C 58.83 124.31 60.92 126.64 59.76 129.14 C 58.34 127.32 57.25 125.28 56.52 123.10 C 55.41 124.05 54.29 124.99 53.18 125.93 C 52.86 121.72 52.90 117.46 53.19 113.24 Z" />
</g>
</svg>
