<?xml version="1.0" encoding="UTF-8" ?>
<!DOCTYPE svg PUBLIC "-//W3C//DTD SVG 1.1//EN" "http://www.w3.org/Graphics/SVG/1.1/DTD/svg11.dtd">
<svg width="30pt" height="30pt" viewBox="0 0 674 682" version="1.1" xmlns="http://www.w3.org/2000/svg">
<g id="#dadadaff">
</g>
<g id="#ec9e17ff">
<path fill="#ec9e17" opacity="1.00" d=" M 318.27 9.32 C 363.61 7.03 409.36 14.16 451.86 30.15 C 526.35 57.89 589.74 114.01 626.79 184.29 C 643.50 216.08 655.26 250.51 660.92 285.99 C 669.09 337.00 665.26 389.97 649.31 439.13 C 629.08 503.41 588.20 560.86 534.44 601.43 C 505.61 623.03 473.34 640.04 439.14 651.33 C 393.90 666.47 345.36 671.38 297.98 666.03 C 262.63 662.04 228.08 651.93 195.75 637.16 C 127.25 605.32 70.37 549.04 38.09 480.73 C 2.61 406.89 -4.08 319.57 20.56 241.37 C 34.13 197.10 57.13 155.71 87.82 121.01 C 102.74 104.21 119.22 88.74 137.19 75.23 C 171.87 48.93 211.90 29.76 254.06 18.98 C 275.04 13.47 296.65 10.74 318.27 9.32 M 309.55 45.80 C 269.61 49.09 230.55 61.21 195.31 80.19 C 158.17 100.24 125.64 128.62 100.25 162.30 C 77.10 193.11 60.26 228.58 50.70 265.91 C 40.24 306.68 38.75 349.71 46.24 391.14 C 54.00 433.41 71.04 473.99 95.98 509.00 C 117.19 538.72 143.90 564.51 174.46 584.50 C 205.12 604.34 239.30 618.88 275.08 626.40 C 322.22 636.13 371.82 634.34 418.04 620.79 C 468.42 605.75 515.09 577.54 550.71 538.74 C 593.25 493.35 620.53 433.97 627.51 372.18 C 634.54 312.54 622.47 250.93 593.77 198.22 C 575.00 163.45 548.90 132.75 518.04 108.11 C 484.67 81.67 445.45 62.56 403.99 52.81 C 388.34 48.37 372.13 46.67 355.98 45.23 C 340.51 44.42 324.99 44.28 309.55 45.80 Z" />
<path fill="#ec9e17" opacity="1.00" d=" M 208.45 156.66 C 210.22 156.03 212.14 156.03 214.00 155.98 C 239.67 156.03 265.33 155.97 291.00 156.01 C 294.90 155.83 298.97 157.66 300.96 161.11 C 302.54 164.13 302.01 167.67 302.11 170.95 C 302.07 290.31 302.13 409.68 302.08 529.04 C 302.40 534.45 297.37 539.28 292.02 539.01 C 265.36 538.99 238.71 538.99 212.05 539.01 C 207.66 539.24 203.44 536.16 202.22 531.96 C 201.64 529.03 201.90 526.02 201.86 523.05 C 201.89 404.04 201.83 285.02 201.89 166.01 C 201.63 161.79 204.52 157.97 208.45 156.66 Z" />
<path fill="#ec9e17" opacity="1.00" d=" M 375.50 156.66 C 377.27 156.04 379.17 156.04 381.02 155.99 C 405.35 156.00 429.68 156.01 454.00 155.98 C 457.72 156.02 461.85 155.59 465.03 157.94 C 468.10 159.81 469.32 163.51 469.15 166.95 C 469.12 287.64 469.16 408.33 469.13 529.02 C 469.46 534.47 464.40 539.30 459.01 539.01 C 432.33 538.99 405.65 538.99 378.97 539.01 C 373.60 539.27 368.60 534.42 368.92 529.00 C 368.90 407.99 368.91 286.98 368.92 165.97 C 368.66 161.75 371.60 157.98 375.50 156.66 Z" />
</g>
<g id="#2e2d2cff">
</g>
</svg>
