<svg xmlns="http://www.w3.org/2000/svg" xmlns:xlink="http://www.w3.org/1999/xlink" width="2240.904" height="1879.358" viewBox="0 0 2240.904 1879.358">
  <defs>
    <filter id="Pfad_66" x="0" y="0" width="2240.904" height="1879.358" filterUnits="userSpaceOnUse">
      <feOffset input="SourceAlpha"/>
      <feGaussianBlur stdDeviation="25" result="blur"/>
      <feFlood flood-color="#f8dd5a" flood-opacity="0.969"/>
      <feComposite operator="in" in2="blur"/>
      <feComposite in="SourceGraphic"/>
    </filter>
  </defs>
  <g transform="matrix(1, 0, 0, 1, 0, 0)" filter="url(#Pfad_66)">
    <path id="Pfad_66-2" data-name="Pfad 66" d="M822.286,54.47c3.887-21.019,10.078-45.828,22.88-50.587C858.294-1.273,868.745,20.5,873.05,41.647c11.615,56.184,14.339,116.95,19.3,176.042,13.85,228.3,19.6,457.885,30.422,686.717,16.992-.352,34.007.132,51-.352,5.493-19.168,9.892-39.351,14.012-59.709,4.306-66.1,8.473-132.329,15.083-197.766,4.422-39.659,8.426-80.464,18.737-116.421,5.586-19.521,16.014-38.117,28.676-34.283,13.523,2.115,21.064,26.968,26.115,47.987,14.269,78.481,18.691,161.677,24.347,243.55,2.864,38.822,3.794,78.128,7.542,116.729,26.814.353,53.628-.044,80.465.22,8.216-48.384,14.454-98.354,26.233-144.27,4.864-17.494,10.288-36.53,19.9-46.137,9.892-10.179,22.648-4.935,30.7,9.21,7.1,12.118,11.591,28.51,15.269,44.947,9.427,43.669,14.2,90.158,19.086,136.207q37.847-.066,75.693,0c8.03-155.2,14.152-310.794,25.511-465.288,4.143-50.587,8.007-101.747,17.131-150.131,4.027-20.05,10.4-42.435,22.276-48.12,9.5-6.081,18.806,7.711,23.438,22.473,6.751,22.518,9.567,48.3,12.523,73.325,8.356,79.67,12.127,160.663,16.2,241.435,5,108.622,8.682,217.463,12.569,326.261,25.208-.132,50.416.352,75.624-.264,8.589-69.315,15.5-139.291,23.788-208.694,3.166-47.5,7.17-95.137,14.711-140.921,3.608-19.3,8.4-42.083,19.459-49.4,11.522-5.816,21.927,10.047,26.954,28.334,9.729,33.8,13.639,72.135,17.806,109.459,6.843,68.39,11.429,137.528,15.432,206.667,1.443,13.043,1.816,26.351,2.095,39.659.512,3.79,1.536,11.369,2.025,15.159,29.957-.22,59.89.44,89.846-.353,6.7-52.878,11.1-107.431,22.392-157.8,5.051-22.473,14.314-47.723,28.607-47.855,14.152,6.213,20.529,34.018,27.442,55.346l1.583.925c-1.722,26.131,3.562,50.94,6.052,76.189,1.3,16.348,2.769,32.7,4.678,48.869.489,8.108.861,16.26,1.3,24.412,36.148-.132,72.3,1.1,108.444-.353.07-6.566.07-13.131.372-19.7,8.1-105.757,11.358-213.717,27.56-316.655,3.864-19.257,7.89-46,20.343-49.926,8.822,2.512,14.175,18.243,17.5,32.52,8.543,37.72,12.336,78.481,16.177,118.669,7.216,78.04,11.359,156.917,16.456,235.486,16.317.485,32.633.132,48.973.22,0,8.989,0,18.023.07,27.056-15.595.088-31.19-.132-46.761.221q.454,26.769,1.116,53.628c-3.7-17.45-4.049-35.913-5.7-54.068q-44.446.6-88.868.044c-8.845,145.46-12.849,292.11-24.72,436.953-3.142,38.469-6.7,77.071-13.337,114.042-3.235,15.952-7.17,33.886-15.759,41.95-8.006,6.39-16.153-4.274-20.366-16.7-9.473-27.365-13.36-59.841-17.387-91.172-12.336-108.93-18.481-219.887-25.348-330.359-3.817-50.675-6.564-101.615-10.94-152.114-19.855-1.895-39.639-.22-59.495-1.718-1.4.617-4.189,1.851-5.585,2.424-7.867,90.555-13.594,181.858-24.137,271.532-3.864,30.713-7.984,61.868-15.944,89.894-3.887,13.616-9.4,26.615-17.224,32.388-6.471,4.054-14.152,2.644-19.436-5.949-9.007-13.968-13.034-35.693-16.782-55.787-10.2-61.119-14.594-124.926-19.832-187.983-3.421-48.516-6.4-97.164-9.938-145.636-16.782-.132-33.588,1.718-50.346-.749-7.216.529-14.432,1.322-21.624,1.895-.233,16.877-.3,33.842-1.723,50.543-1.35,17.8-.4,36-2.467,53.628-3,91.083-7.216,181.991-10.916,272.986-4.609,93.991-8.612,188.292-16.992,281.446-3.445,35.3-6.773,71.21-14.757,103.995-3.91,14.63-10.311,30.758-19.715,31.507-11.289,2.6-18.924-17.671-22.718-35.076-8.285-40.276-11.312-83.416-14.943-125.807-15.083-210.985-19.738-423.954-28.746-636.041-25.488.264-50.975.088-76.462.044-5.726,99.1-10.009,198.78-20.6,296.605-3.654,30.1-7.169,61.207-15.758,87.911-4.283,14.013-12.127,24.985-20.9,24.9-9.544.617-18.341-10.047-23.927-24.06-10.079-24.809-14.8-55.434-19.366-85-12.383-88-18.3-178.509-26.744-267.962-.93-9.65-1.536-19.433-2.072-29.172-8.426-4.539-17.131-.352-25.7-2.512-8.193-1.719-16.363.132-24.487,1.851-8.985,109.635-15.269,219.975-24.253,329.61-4.283,48.692-8.566,97.649-16.224,144.931-4.19,23.619-8.751,48.736-18.807,65.834-8.426,14.982-22.811,16.965-31.771,2.688-8.612-13.176-13.012-33.225-16.643-52.438-7.728-43.757-11.568-89.453-15.455-134.885-8.589-110.031-14.059-220.812-19.622-331.5-.745-8.108-1.374-16.3-1.909-24.412a98.773,98.773,0,0,1-19.366-1.586c-10.149-1.807-20.251,3-30.4.881a36.679,36.679,0,0,0-17.341.661c-6.61,101.659-12.22,203.979-24.416,303.919-5.191,34.327-9.474,73.942-25.627,96.239-10.078,13.792-25,8.46-31.8-11.193-10.986-30.493-13.872-68.17-17.853-103.51-8.543-94.388-13.454-189.878-17.061-285.28-30.864-.793-61.705-.088-92.546-.353-3.538,65.614-6.191,131.447-10.893,196.885-2.723,42.875-6.191,85.663-11.5,127.658-2.909,20.931-5.912,42.479-12.359,60.634l-8.589,15.339-11.638,4.8c-8.426-1.366-15.292-12.515-19.924-25.161-6.4-17.714-9.73-38.513-13.151-58.739-14.105-105.272-19.3-213.718-26.465-321.193-23-.044-46.017-.925-69.014.485-.372,46.621-4.236,92.8-5.516,139.291-8.193,163.4-13.1,327.8-28.56,489.523-3.771,33.005-7.146,67.244-16.294,96.68-4.469,15.511-14.268,25.91-23.532,19.829-8.263-6.918-12.709-23.09-15.967-38.116-11.266-66.671-14.734-136.779-19.133-205.874-9.287-166.964-14.547-334.589-20.553-502.038-28.746-.044-57.469.088-86.191-.044-5.633,95.622-10.707,191.6-20.832,285.985-3.794,30.626-7.146,62.529-16.014,89.629-4,12.911-12.965,21.107-20.507,14.145-9.054-8.2-13.523-26.572-17.154-43.228-7.96-39.218-11.917-80.86-15.851-122.061-6.541-74.383-11.475-149.294-15.874-224.205-14.245-4.494-28.63,2.027-42.991-.617-17.946.265-35.915.22-53.861.882-3,40.893-7.309,81.477-12.01,121.8-4.283,31.9-8.263,64.732-17.131,93.375-4.167,13.484-11.661,27.453-20.669,23.31-10.172-5.6-14.734-26.219-18.761-42.92-12.825-62.793-16.9-130.169-22.927-196.047-9.706-3.966-19.482,1.542-29.258-.353a97.628,97.628,0,0,0-25.278-1.719c.047-9.033.07-18.111.047-27.144,17.48.044,34.961.176,52.441-.088-1.187-9.165-2.374-18.331-3.119-27.629l-2.979.176c.978-2.292,2.91-6.874,3.887-9.166l-4.981.837c.233-3.393.7-10.223.954-13.66-1.42-.529-4.213-1.586-5.609-2.071,1.839-.22,5.493-.661,7.309-.881-.559-12.25-.838-24.544-.7-36.839L99.4,816.23q-.244-14.938-.722-29.876c-8.1-73.325-9.753-150.528-25.58-220.107-1.4-13.837-6.122-24.941-10.125-36.4,6.843,14.365,10.684,32.564,16.386,48.384l-2.723-.837c4.516,20.711,6.727,42.7,9.869,64.2,6.936,67.508,13.64,135.193,18.016,203.45,2.142,19.433,3.841,39.042,4.772,58.827,28.7.661,57.422.705,86.122-.088-.3-7.315-.559-14.63-.815-21.945l2.188.925c.14-17.847,3.445-34.723,5.1-52.13,6.378-73.1,11.219-147.223,23.346-217.948,4.329-22.385,9.008-48.075,20.646-60.414,7.379-9.562,16.41.617,21.042,12.471,8.1,21.24,11.382,47.194,15.362,71.915,4.911,34.988,6.75,71.386,13.337,105.537,9.078,54.333,16.5,109.943,29,161.985,21.554-.132,43.131.969,64.661-1.014.256-1.234.768-3.79,1-5.024-1.56.881-4.725,2.644-6.308,3.525,8.706-21.68,7.821-49.177,9.264-74.735,5.284-101.747,9.5-203.715,16.456-305.154,3.864-56.14,7.914-112.543,16.177-167.1,3.189-18.772,6.68-38.822,14.454-52.746,6.866-13,19.785-9.65,24.6,6.478,10.2,30.449,12.732,67.288,16.666,101.879,14.571,163.4,19.3,329.126,26.767,494.019,26.069-.088,52.116.044,78.161-.088,7.868-62.22,13.78-125.234,20.669-187.9,4.283-53.1,7.565-106.815,15.781-158.416,3.608-20.667,8.193-43.537,18.83-54.641,9.4-8.2,20.879-.881,27.047,14.233,10.754,25.25,14.99,57.638,19.3,88.4,11.987,98.046,17.48,198.427,23.765,298.235,21.507.264,43.038.22,64.545,0,3.445-90.819,7.96-181.594,10.079-272.545l1.117-2.864c2.025-76.674,5.331-153.26,9.008-229.669,1.979-57.638,5.68-114.923,8.543-172.384,4.446-57.726,7.5-116.465,17.085-172.208m16.456,107.784c-7.239,85.8-11.2,172.428-15.409,258.885-3.026,76.63-6.96,153.172-9.078,229.89a374.488,374.488,0,0,1,12.011-54.245c5.307-18.155,14.9-32.168,26.209-32.432,17.55,14.453,25.022,50.279,30.91,82.138-2.141-26.175-1.257-52.879-3.561-79.01-2.025-69.271-5.376-138.322-8.519-207.46C866,264.971,862.646,168.555,849.076,76.062c-5.167,27.893-7.681,57.2-10.334,86.192M1443.153,309.08c-10.451,60.546-13.779,124.265-18.551,187.014-1.443,26.439-2.77,52.879-4.632,79.23-1.443,42.876-5.167,85.4-5.679,128.363,7.658-19.125,14.478-47.458,29.049-48.648,14.943-2.556,22.811,27.188,27.839,49.089-4.655-115.187-9.4-230.639-19.925-344.548-2.351-16.921-2.3-36.222-8.1-50.5M439.7,380.907c-12.313,96.812-16.875,196.356-22.9,295.063-1.513,32.829-4.19,65.525-4.306,98.574,4.958-29.524,10.358-59.973,21.134-83.857,7.03-15.379,20.46-22.165,29.3-8.284,10.172,16.525,14.641,41.774,19.226,64.776-2.118-67.817-5.517-135.457-9.124-203.01-4.819-72.444-7.332-146.914-21.182-215.745-7.658,13.572-9.171,34.327-12.15,52.482M2027.012,574.046c-6.959,43.8-10.474,89.189-13.989,134.312-3.166,46.71-6.7,93.375-7.96,140.437,1.722-9.474,3.305-19.3,2.816-29.48l5.725-.749c-6.587,26.924-11.312,55.7-12.36,85.443,29.049.529,58.121.309,87.194.132-1.235-11.633-2.887-23.09-4.493-34.547-4.121-17.758-7.635-36-11.522-53.936-6.61-19.3-13.36-38.733-22.88-53.407-5.516.22-11.033.308-16.5.4.14,2.6.442,7.844.605,10.488-.931-.617-2.77-1.807-3.678-2.424-5.26,13-12.5,23.928-14.105,40.937-1.141-2.6-2.235-5.244-3.306-7.844,6.7-15.2,11.964-34.239,21.647-43.537,6.284-3.481,14.245-3.878,19.343,5.244,7.029,11.721,13.78,24.721,17.945,40.849,5.144,17.494,6.844,38.073,13.2,54.377.047-17.891-1.792-35.429-2.932-53.1-5.563-73.589-10.544-147.708-20.995-219.535-3.422-17.714-6.029-36.839-12.639-51.468-2.142-5.244-5.4-8.064-8.845-6.213-6.983,10.84-9.5,28.114-12.266,43.625M1638.579,568.8c4.749,1.895,9.5,3.834,14.315,5.552-2.444-10.047-5.028-19.873-7.891-29.436-2.234,7.888-4.354,15.864-6.425,23.883m-989.654-8.461c-9.916,53.231-13.547,109.679-17.527,165.334-1.164,11.677-1.629,23.531-2.141,35.341-.349,5.949-.908,11.809-1.56,17.67a161,161,0,0,1,14.385-24.721c5.773-.264,11.545-.264,17.341.044,7.378,7.667,13.616,18.375,19.04,30.449-6.424-75.308-9.753-153.039-25.115-224.249-1.094.044-3.329.088-4.422.132m382.985,98.31c8.868-9.959,20.064-10.928,29.212-1.631-3.747-32.652-6.68-65.966-13.57-96.9-8.752,30.449-11.242,65.349-15.642,98.53M235.261,606.743c-5.4,26.439-9.287,53.936-12.173,81.741,5.889-21.107,11.358-46.092,23.532-56.712,10.754-8.152,21.181,6.7,27.978,21.2-3.049-26.351-6.331-53.584-14.129-76.542-2.328-5.464-5-13.66-9.4-11.633-8.193,8.945-12.36,26.043-15.8,41.951M847,582.771c-7.355,8.2-12.848,20.975-16.154,35.781-10.684,44.815-15.478,93.551-20.925,141.318-1.117,27.629-3.189,55.126-3.445,82.887l1.187-10.576c1.373,2.952,2.747,5.949,4.1,8.989-1.466,9.606-2.723,19.345-4.1,28.995-1.327,11.325-2.77,22.561-3.91,33.974,29.817.353,59.61.044,89.427.177-.187-14.013-.349-28.07-1.862-41.774-1.466-31.419.745-65.79-8.635-93.683-6.936-25.778-18.551-53.451-35.24-53.055-17.015,10.488-22.252,47.018-28.42,75.044a257.425,257.425,0,0,0-3.422,32.873l-.349,3.569c.233,8.813-3.933,5.993-6.727,4.362,5.377-35.6,10.312-73.017,22.136-103.289,5.4-14.586,15.362-23.4,24.673-18.375,15.083,5.6,24.393,31.463,31.213,55.346.559-24.324-3.561-47.635-6.308-71.078-4.213-30.141-8.519-60.81-16.712-88.087A60.869,60.869,0,0,0,850.473,582.2c-.861.132-2.607.441-3.468.573m779.913,99.324c-2.188,33.622-5.214,67.156-5.772,101.042,4.842-11.237,9.8-23.972,17.457-28.555,4-.837,8.054-.617,12.127-.661,10.963,9.606,19.506,26.7,25,46.886-4.213-66.8-9.544-133.607-18.389-198.868a52.358,52.358,0,0,0-8.286-24.412c-3.725.176-7.426.353-11.1.485-5.679,33.842-8.007,69.183-11.033,104.083M219.457,720.784c-4.632,45.872-9.822,91.877-11.731,138.5,7.262-28.863,14.035-61.075,28.513-79.759,7.146-10.047,16.619-10.223,25-7.139,15.5,12.382,22.973,43.625,29.281,70.989C287.33,782.916,282.6,722.591,275.925,663.1c-6.471-17.582-16.549-35.737-28.932-28.422-15.8,18.419-22.089,54.421-27.536,86.1m811.033-47.062c-2.839,34.283-6.168,68.478-8.077,103.069,3.259-6.125,6.564-12.118,9.892-18.067,5.609-3.658,11.2-9.783,17.34-8.637,6.215,2.38,11.708,8.725,17.085,14.85.7,2.336,2.095,6.962,2.793,9.3-.07-7.4-.465-14.806-1.094-22.077-1.816-26.66-3.3-53.584-6.471-79.759-7.611-20.138-23.439-15.291-31.469,1.322m393.786,35.913c-8.659,37.808-17.155,77.952-14.991,120.034,3.1-31.419,7.868-62.573,15.782-90.951,4.167-14.674,11.1-30.229,20.786-29.3,8.565-1.013,15.176,10.4,21.089,20.447-4.819-20.138-8.031-45.608-19.041-56.977-12.127-4.583-19.017,19.653-23.625,36.751m-998.011,22.3c1.909-1.366,5.749-4.1,7.658-5.464-14.711,24.765-17.434,62.617-22.9,96.327-4.469,26.307-4.492,54.156-6.308,81.345,27.862.309,55.723.088,83.585.132-.768-26-1.979-51.909-2.77-77.864-.652-22.606-4.585-44.154-7.8-65.746-2.863-19.786-10.544-37.808-21.088-44.11-7.448-4.407-15.455.793-21.088,10.444-1.164-2.115-2.328-4.186-3.468-6.3,4.283-3,8.542-6.257,12.732-9.783,9.59-2.424,19.575,1.939,25.906,16.789-2.886-18.816-9.008-36.134-18.807-43.977-12.965,5.728-19.459,28.246-25.65,48.208m995.125,40.761c-7.821,42.744-12.662,87.205-17.178,131.535,24.929,0,49.857.264,74.787-.132-1.607-41.245-2.793-82.579-4.795-123.736-1.537-30.273-12.825-58.255-28.513-66.407-13.943,7.844-19.669,35.34-24.3,58.739m394.531,77.555c7.192-11.721,15.525-23.4,25.464-23.487,9.776-1.674,17.62,11.1,24.765,21.857-3.514-24.236-5.633-49.133-9.822-73.016-3.166-18.111-6.424-37.544-14.664-49.794-16.852,33.358-19.994,81.521-25.743,124.441M635.82,787.191c-5.7,16-10.451,33.974-11.405,53.451-1.7,21.063-1.327,42.523-3.747,63.41,21.833.4,43.689.308,65.546.088-1.792-23.839-2.49-47.987-5.1-71.562-5.237-25.646-12.918-52.526-26.791-64.424-7.681-2.071-14.385,7.579-18.5,19.036M296.85,763.4a263.9,263.9,0,0,0,.559,28.466c3.049,37.412,5.633,75,8.24,112.543l16.177-.264c-10.916-45.167-17.643-93.287-24.975-140.745m740.274,13.264c-8.31,12.206-13.919,30.009-17.853,48.252-2.887,26.087-3.491,52.879-5.656,79.23,21.228.309,42.455.088,63.683.088-.326-11.1-.652-22.209-1.373-33.269-2.188-20.226-.582-42.083-5.8-60.942-3.492-15.687-9.823-28.114-16.619-38.866-5.54.353-11.824-2.071-16.387,5.508m208.159-7.227c-5.284,21.063-8.45,43.625-12.034,65.834,10.056-6.478,20.646-3.834,30.493,2.556-.582-1.454-1.723-4.407-2.3-5.9-2.491-20.623-6.844-40.1-11.1-59.576-1.7-.97-3.375-1.939-5.051-2.908m388.2,7.006c-11.987,25.91-18.085,60.546-17.224,94.917-1.211,10.84-1.653,21.857-1.886,32.873q34.181.132,68.386,0c-1.816-25.382-1.374-52.306-7.658-75.66-5.61-22.385-11.708-47.635-24.114-58.96-5.936-5.9-13.128-2.247-17.5,6.83M214.406,844.124c-4.609,19.389-10.009,38.645-11.5,60.017,30.7.264,61.4.177,92.1.044-1.024-34.151-8.682-66.054-17.62-95.226-6.075-20.358-17.364-37.412-30.422-33.27-16.316,10.884-25.441,40.584-32.563,68.434m1369.8,60.281c2.864-.264,5.75-.485,8.635-.749.117-35.3,5.447-70.329,2.421-105.581-1.582,36.134-6.89,71.078-11.056,106.33M599.114,812.088c-.978,31.419-5.772,61.648-9.334,92.185l7.379-.264c.6-30.626,4.887-61.3,1.955-91.921m1212.268,92.1c19.855.088,39.733.264,59.587-.088-.722-29.832-10.637-62.264-27.326-67.023-17.946.573-33.657,33.181-32.261,67.112m-580.693-42.127c-1.7,13.969-3.072,28.07-4.538,42.127q22.031.2,44.062,0c-1.024-9.739-1.979-19.521-3.1-29.26-1-14.277-9.148-20.182-15.479-24.016-7.611-5.024-14.8,3.745-20.949,11.149M983.426,889.731c-2.909,1.5-5.842,10.047-3.235,14.806,4.213,3.7,8.566-14.365,3.235-14.806M586.2,931.285c-5.726,30.89-10.149,64.776-22.508,88.968-8.193,16.921-22.764,11.1-30.352-4.318-10.567-21.2-17.131-48.825-21.018-76.762l-3.073-1.234c2.141,36.663,1.978,73.9,7.495,109.591,5.074,39.438,9.59,80.2,20.693,115.5,3.445,10.664,9.636,22.253,16.852,17.758,8.449-5.861,12.872-22.253,16.805-36.442,9.939-40.672,15.339-84.606,20.506-128.143,2.025-28.114,3.212-56.536,3.818-84.958-3.073.044-6.145.044-9.218.044m994.31,0c-5.05,28.643-9.473,58.784-19.6,82.755-4.609,11.148-11.918,19.609-19.645,16.436-14.454-4.406-22.158-31.11-28.583-53.187q-2.584-12.625-5.051-25.205c-.629,33.313,1.35,66.539,3.1,99.632,5.05,41.377,9.148,84.033,19.552,122.061,3.328,10.532,7.8,24.148,15.083,24.148,8.659-2.512,13.453-18.6,17.387-31.815,11.638-44.286,16.852-93.243,22.834-141.01,4-30.67,3.421-62.485,5.563-93.639-3.584-.088-7.123-.132-10.638-.176m124.458-.044c-.582,29.039,5.656,56.4,12.731,81.477,4.609,15.335,10.335,31.9,19.646,37.764,10.4,6.874,21.53-4.539,28.3-19.3,12.1-27.893,19.715-61.912,23.765-97.032-3.561-1.542-7.192-3.128-10.846-2.908-24.533.132-49.067.22-73.6,0M114.831,934.37c3.794,11.5,7.565,23.046,10.521,35.429,6.727,13.308,13.966,27.938,24.068,31.154,9.869,4.054,19.017-7.138,26.255-18.551a156.418,156.418,0,0,0,10.172-32.873c.792-3.57,2.4-10.62,3.189-14.189-1.722-.969-5.19-2.908-6.913-3.878-22.322,4.671-44.9-.661-67.291,2.908m221.053-.749c1.024,1.983,3.119,5.861,4.166,7.844,1.141,1.454,3.422,4.406,4.562,5.9,7.286,1.146,14.664.969,21.437-4.891,1.536-1.895,4.609-5.64,6.145-7.491-12.011-4.583-24.207-.837-36.311-1.366m587.722.264c2.7,28.466.117,59.621,8.193,85.487,3.631,12.47,8.193,27.893,16.386,30.009,12.918-1.278,20.39-24.677,25.837-43.978,6.82-21.68,6.564-47.723,7.937-72-5.237.044-10.45.132-15.642.529-6.983,10.884-15.99,13.572-24.6,16.128.186-3.834.512-7.668.768-11.5,5.1.132,10.265-.088,15.269-2.292-4.981-2.2-9.939-3.966-14.943-5.64q-2.235,7.007-4.4,14.145c-3.143-3.657-6.215-7.271-9.31-10.972-1.373,0-4.12.088-5.493.088m379.378,1.19c1.164,19.829,3.329,39.791,8.8,57.153,6.75,23.178,14.8,50.146,29.514,56.668,9.986,5.244,17.714-11.9,22.066-26.571,9.52-26.836,10.148-60.458,9.706-91.7-8.868,4.495-17.946.308-26.884,2.115-10.218,2.159-20.39-1.939-30.585-.044-4.189.881-9.054-3.349-12.615,2.38m-995.311-1.5c6.145,32.168,11.848,65.349,22.3,93.595,5.61,14.542,13.989,29.3,24.277,26.659,10.1-4.274,16.037-22.517,20.483-38.733,6.424-25.866,12.43-52.923,13.454-81.741-4.329.088-8.635.308-12.941.661a121.186,121.186,0,0,1-13.291,17.89c-5.959.309-12.057,1.9-17.923-.793-4.818-3.966-8.729-10.928-12.592-17.45-7.937-.308-15.851-.264-23.765-.088m205.9-.044c6.96,32.256,12.755,72.179,30.585,88.836,7.448,8.593,15.875-1.63,20.437-13.131,8.914-22.209,13.221-49.442,17.62-75.66-22.881-.22-45.761-.132-68.641-.044m200.035.132c1.373,14.321,2.514,28.73,2.956,43.316,6.587,26.4,12.2,59.224,27.652,71.43,10.428,7.844,17.783-12.823,21.949-27.717,8.5-26.175,7.169-57.814,8.845-87.162-20.46-.088-40.92-.265-61.4.132m399.791-.088c5.47,28.995,10.707,60.59,23.137,81.874,7.937,13.264,19.832,7.359,26.442-6.346,10.335-21.151,15.432-49.045,20.762-75.484-23.462-.265-46.9-.22-70.341-.044m49.206,88.263c-8.333,13.264-21.344,14.189-29.561.132-12.453-21.2-18.016-52.35-23.788-81.169,2.77,28.555,1.466,58.563,7.192,85.972,5.4,27.541,11.289,56.933,24.184,75.22,5.261-.485,11.149,2.291,15.9-3.437,6.331-6.786,10.87-18.111,14.571-29.7a550.619,550.619,0,0,0,22.578-136.515l-4.586,2.291c-7.448,30.141-12.22,65.393-26.488,87.206m344.7-88.263c5.307,24.721,9.939,50.763,18.97,71.694,4.818,11.061,11.987,20.226,19.854,19.08,6.145-1.895,10.8-10.972,14.245-20.27,7.682-21.283,11.871-46.137,15.968-70.461-23.02-.265-46.04-.22-69.037-.044m380.751,0c1.7,25.955,7.192,50.191,10.893,75.22,6.284,35.6,11.894,73.281,24.789,102.717,5.819,14.145,15.991,22.209,25.208,15.555,10.2-10.179,15.6-30.625,20.274-49.53,7.169-31.331,10.917-64.864,16.968-96.856,1.792,7.932.349,16.613.582,24.9l-1.978-.617c-.186,2.82-.605,8.46-.815,11.325-3.049,17.846-5.959,35.781-9.171,53.54-5.912,24.721-11.708,54.6-26.163,65.305-12.778,8.064-25.348-8.108-32.1-27.761-10.754-30.846-17.55-66.142-22.485-101.747-1.49,23,1.676,45.608,2.467,68.434,5.8,93.6,10.637,187.543,18.737,280.565,3.375,37.147,6.936,74.471,13.384,110.252,2.98,15.511,6.192,32.785,14.315,41.2,9.357-21.459,12.685-49.133,16.107-75.528,11.662-98.4,16.061-199.176,22.461-299.073,1.467-39.174,4.26-78.128,5.889-117.3.443-14.718,5.074-31.331-.442-44.418q2.409-18.243,4.888-36.442c-2.281.22-6.843.617-9.1.837-4.795,26.528-12.126,52.791-23.811,70.725-9.614,14.762-24.533,14.542-33.541-1.983-10.242-18.464-17.108-43.36-20.832-69.006-5.516-.353-11.056-.441-16.525-.308m17.969.176c4.4,25.558,10.986,51.292,22.066,68.83,8.077,13.484,21.088,12.559,29.467.485,11.987-16.965,19.482-42.964,24.068-69.447-25.208-.176-50.417-.441-75.6.132M112.177,929.39c4.748,59.753,10.148,119.77,20.017,177.452,3.748,18.772,7.332,39.394,15.758,52.658,4.888,7.8,11.871,1.807,15.153-6.918,8.728-21.945,12.267-49.221,16.223-75.176,4.027-29.3,6.82-59.092,9.8-88.836,1.56-18.948,4.259-37.9,2.654-57.241-.652,22.033-9.357,37.544-13.919,56.624l-2.281-.969c.047,3.217.163,9.606.209,12.823-4.4,9.21-8.449,19.786-14.385,25.69-5.517,3.305-11.429,2.908-17.155,3.129,7.169-4.583,16.223-.573,21.763-12.03,4.632-7.932,9.52-16.613,9.241-29.7-9.008,18.552-25.022,23.8-36.288,9.783-3.98-3.746-7.635-12.382-12.523-9.122a180.017,180.017,0,0,0,18.993,39.086c-12.15-13.352-22.368-36.927-22.764-64.423l-3.515,4.847c.535-2.556,1.559-7.623,2.072-10.179l-2.7-.22q-3.212-13.682-6.354-27.277m198.289,43.1c5.447,79.494,10.963,159.164,20.2,237.425,4.166,31.771,8.147,64.908,18.807,91.48,6.983-1.278,8.705-15.731,11.405-25.646,9.054-52.57,12.872-107.608,16.945-162.117,2.3-38.557,5.423-77.027,6.354-115.8-4.981,23.09-10.8,50.014-23.509,61.383-8.775,8.372-19.505,1.983-26.441-9.915-11.917-20.314-17.737-49.486-23.765-76.806m1470.749,39.571c-.931,5.552-1.839,11.06-2.723,16.568-5.912,32.3-12.2,69.888-29.607,86.192-3.515-.044-7.005-.044-10.5.044-16.317-20.579-23.044-59-25.674-94.08a342.652,342.652,0,0,0,.768,56.58c4.329,55.17,8.053,110.737,15.968,164.584,3,20.138,6.587,40.673,14.1,56.536,9.1-14.5,13.151-36.265,16.829-56.932,7.286-43.36,11.615-88.263,15.828-132.99,2.537-26.483,4.935-52.967,6.8-79.67,1.374-13.043,2.375-26.219,3.445-39.394-1.769,7.491-3.538,15.026-5.237,22.561M1323.49,1161.483c1.723,21.107,6.867,42.391,16.177,55.214,5.331,8.5,15.316,3,15.921-11.061,5.4-53.451,8.985-107.476,12.5-161.456-6.215,10.84-13.151,23.883-22.3,23.31-14.781.573-27.373-19.124-34.5-42.259,3.049,45.7,7.775,90.951,12.2,136.25M720.848,1032.547c6.331,34.327,9.217,79.671,28.909,96.283,5.8-5.067,12.523-9.65,15.711-20.975,2.467-21.108,2.7-42.876,4.4-64.2-5.144,11.457-11.568,23.487-20.064,23.619-12.313-.088-21.972-17.23-28.956-34.724m1022.846,30.89c-10.87,2.688-18.993-12.955-26.255-25.6,2.98,24.677,8.1,50.675,18.528,67.464,8.356,12.514,18.738-.925,24.091-14.233,6.68-18.111,12.685-38.425,13.942-60.766-7.424,17.45-17.48,35.428-30.305,33.137m-796.207,4.186c-7.472.485-13.151-10-17.946-19.389,4.935,76.1,8.007,153.656,20.506,227.025,15.991-75.7,18.341-158.151,26.139-237.513-7.541,15.159-16.875,31.419-28.7,29.876m200.641,55.17c-14.152-.132-24.37-21.768-30.771-43.4,1.653,42.259,4.562,84.254,7.146,126.336,4.865,71.518,9.869,143.477,21.135,212.572,1,.573,3,1.719,4,2.248q6.076-29.613,10.219-60.458c10.777-89.012,15.526-180.1,22.857-270.209.465-8.549.7-17.1.931-25.646-6.7,27.629-18.271,55.787-35.519,58.563m-421.484-4.142c5.26,54.906,8.868,111.442,21.228,162.646,10.358-51.028,13.011-106.065,17.2-159.737-5.935,10.267-14.78,15.864-22.368,8.945-9.52-10.928-14.408-31.463-17.248-51.028a285.066,285.066,0,0,0,1.187,39.174m-138.516-16.3c-5.447,28.554-10.4,59.356-22.113,81.256-6.168,12.294-16.945,16.877-24.649,7.095-10.381-11.854-13.733-35.12-19.226-54.068-1.164-1.146-3.491-3.481-4.655-4.671.489,18.816.768,37.676,1.815,56.4,5.4,121.973,10.1,244.255,20.669,365.17,3.142,26.175,4.282,54.333,11.731,77.82,6.494-29.083,9.52-60.282,12.477-91.172,7.052-77.379,11.033-155.6,15.013-233.679,3.142-68.037,6.634-136.03,8.938-204.155m994.24,8.152c-4.1,29.612-9.473,59.576-19.365,84.209-5.843,15.026-16.992,24.369-26.372,15.643-10.964-11.545-15.991-35.076-20.18-56.183l-1.723,1.762c-.512-5.949-1.047-11.854-1.629-17.758a221.3,221.3,0,0,0,.839,22.253c1.07,20.623.186,41.51,2.373,61.912,1.77,67.905,5.563,135.546,8.147,203.363,5.191,81.168,7.262,164.1,19.9,242.757,4.236-6.214,4-18.464,5.889-27.321,12.2-95.138,16.386-193.1,21.857-290.171,3.63-80.111,8.518-160.134,10.264-240.465m-252.686,100.91a487.369,487.369,0,0,0,13.151,68.346c.768-.749,2.281-2.247,3.026-3,2.584-16.128,5.354-32.212,6.867-48.824-1.932.309-5.773.926-7.7,1.234C1339.016,1226.348,1333.848,1219.958,1329.682,1211.409Z" transform="translate(22.93 73.95)" fill="#ec9e17" stroke="#ec9e17" stroke-width="4"/>
  </g>
</svg>

