<?xml version="1.0" encoding="UTF-8" ?>
<!DOCTYPE svg PUBLIC "-//W3C//DTD SVG 1.1//EN" "http://www.w3.org/Graphics/SVG/1.1/DTD/svg11.dtd">
<svg width="1121pt" height="940pt" viewBox="0 0 1121 940" version="1.1" xmlns="http://www.w3.org/2000/svg">
<g id="#ffffffff">
</g>
<g id="#fefbeaff">
</g>
<g id="#fdf5d0ff">
</g>
<g id="#ec9e16ff">
<path fill="#ec9e16" opacity="1.00" d=" M 426.76 45.74 C 428.43 42.21 430.99 38.53 435.04 37.62 C 438.09 37.07 440.78 39.23 442.51 41.51 C 446.56 46.89 448.25 53.58 449.54 60.07 C 452.77 76.54 454.51 93.26 455.88 109.98 C 461.42 174.65 463.19 239.56 466.45 304.36 C 466.82 326.50 468.21 348.62 468.86 370.76 C 470.12 397.98 470.71 425.24 472.40 452.44 C 472.42 452.68 472.45 453.17 472.46 453.41 C 472.36 464.91 473.39 476.39 473.85 487.89 C 481.75 488.28 489.69 488.38 497.59 487.81 C 500.21 477.64 503.10 467.47 504.50 457.04 C 506.34 429.35 508.21 401.66 510.63 374.01 C 512.24 356.65 514.00 339.28 516.83 322.07 C 518.54 312.16 520.72 302.29 524.43 292.92 C 526.70 289.46 528.88 285.31 533.09 283.95 C 537.42 282.75 541.64 285.76 543.71 289.39 C 547.65 295.99 549.60 303.56 551.12 311.03 C 557.21 345.76 559.50 381.00 561.91 416.14 C 562.17 413.57 562.29 411.00 562.57 408.44 C 562.16 414.95 562.08 421.49 562.69 428.00 C 563.48 436.17 563.55 444.39 564.33 452.57 C 564.48 464.35 565.55 476.09 566.53 487.83 C 579.31 488.49 592.14 488.17 604.93 488.02 C 607.42 473.41 609.77 458.78 612.20 444.16 C 614.68 430.59 617.14 416.92 621.93 403.94 C 623.81 399.27 626.11 394.33 630.44 391.46 C 634.01 389.16 638.75 390.61 641.57 393.45 C 645.84 397.68 648.00 403.49 649.78 409.12 C 657.08 434.79 659.20 461.54 662.39 487.94 C 674.34 488.43 686.31 488.06 698.27 488.14 C 698.65 478.24 699.70 468.37 699.59 458.45 C 701.77 420.63 703.27 382.78 705.50 344.96 C 708.17 298.82 710.40 252.60 715.66 206.65 C 717.13 195.56 718.47 184.39 721.37 173.55 C 722.94 168.23 724.70 162.67 728.58 158.54 C 730.58 156.47 733.88 154.57 736.67 156.33 C 741.24 159.19 743.27 164.62 744.81 169.54 C 747.86 180.82 749.23 192.47 750.65 204.04 C 753.10 227.28 754.57 250.62 756.06 273.94 C 759.95 337.73 761.59 401.62 764.37 465.46 C 764.41 472.98 764.72 480.51 765.21 488.03 C 777.14 488.16 789.10 488.47 801.02 487.78 C 802.02 478.90 803.33 470.04 804.16 461.14 C 806.93 435.66 809.80 410.18 812.72 384.72 C 814.51 360.90 816.33 337.05 820.22 313.47 C 821.64 306.35 822.91 298.95 826.71 292.64 C 828.15 290.51 830.03 288.01 832.88 288.03 C 836.12 287.60 838.66 290.10 840.44 292.49 C 844.20 297.64 845.61 304.01 847.14 310.09 C 850.67 324.85 852.22 339.99 853.94 355.05 C 857.93 393.50 860.20 432.09 862.67 470.66 C 862.79 476.47 863.00 482.29 863.95 488.03 C 878.33 488.20 892.72 488.45 907.09 487.78 C 907.49 484.57 907.92 481.36 908.21 478.14 C 910.80 456.32 913.23 434.44 917.52 412.87 C 919.36 404.71 921.15 396.12 926.27 389.30 C 928.32 386.62 932.50 383.64 935.68 386.31 C 941.22 390.92 943.22 398.23 945.43 404.80 C 946.58 409.22 949.13 413.35 948.88 418.06 C 948.83 430.51 951.18 442.77 952.28 455.13 C 952.77 461.72 953.46 468.30 954.17 474.87 C 954.54 479.18 954.69 483.51 954.92 487.83 C 972.36 487.99 989.80 488.61 1007.23 487.73 C 1007.27 484.50 1007.33 481.28 1007.51 478.06 C 1009.32 451.59 1011.17 425.10 1012.71 398.61 C 1014.36 379.04 1015.91 359.45 1018.44 339.97 C 1019.99 328.39 1021.31 316.70 1024.55 305.44 C 1025.88 301.30 1027.69 296.59 1031.96 294.70 C 1034.06 294.68 1035.65 296.52 1036.85 298.07 C 1040.23 303.10 1041.56 309.15 1042.83 314.98 C 1046.35 331.97 1048.08 349.26 1049.75 366.51 C 1052.59 395.45 1054.15 424.51 1056.38 453.49 C 1056.63 464.93 1057.67 476.34 1058.46 487.76 C 1066.56 488.12 1074.68 488.29 1082.80 488.13 C 1082.77 493.30 1083.15 498.46 1082.95 503.63 C 1075.20 503.60 1067.44 503.57 1059.69 503.78 C 1059.73 512.28 1059.73 520.80 1060.11 529.30 C 1059.60 529.41 1058.60 529.62 1058.09 529.73 C 1057.68 527.22 1057.34 524.70 1056.99 522.19 C 1056.30 515.99 1055.71 509.77 1055.33 503.55 C 1041.14 503.73 1026.96 503.53 1012.78 503.69 C 1012.48 510.96 1011.77 518.22 1011.60 525.51 C 1008.91 573.66 1006.95 621.85 1004.00 669.99 C 1001.83 703.71 999.89 737.51 995.01 770.97 C 993.61 779.31 992.41 787.90 988.64 795.56 C 987.17 798.51 984.13 802.28 980.41 800.48 C 975.26 797.40 973.79 791.05 972.12 785.71 C 966.81 765.90 965.14 745.35 962.93 725.02 C 956.34 659.01 953.76 592.69 948.54 526.57 C 948.30 519.29 947.59 512.03 946.90 504.78 C 936.80 504.32 926.67 504.26 916.57 504.38 C 915.54 513.05 914.68 521.77 914.39 530.51 C 911.43 564.28 908.92 598.12 905.26 631.83 C 903.24 649.26 901.05 666.75 896.75 683.78 C 894.86 690.18 892.85 697.21 887.55 701.67 C 883.87 704.71 878.32 702.77 876.23 698.80 C 870.59 689.60 869.18 678.64 867.23 668.22 C 862.62 639.29 860.39 610.06 858.07 580.87 C 856.20 555.45 854.70 530.00 852.74 504.58 C 846.14 504.49 839.55 504.83 832.97 504.46 C 828.38 504.33 823.66 503.95 819.20 505.24 C 818.14 509.03 818.79 513.06 818.51 516.95 C 816.49 556.95 815.05 596.99 813.47 637.02 C 813.16 647.51 812.37 657.98 812.34 668.48 C 810.46 709.59 808.51 750.70 805.90 791.77 C 804.09 815.73 802.56 839.74 799.36 863.57 C 798.12 872.44 796.51 881.28 794.08 889.91 C 792.28 894.40 790.49 899.95 785.56 901.84 C 783.00 902.90 780.62 901.17 778.53 899.92 C 772.11 890.20 771.07 878.30 769.23 867.11 C 765.47 838.55 763.82 809.76 762.02 781.02 C 756.65 692.24 754.45 603.31 750.62 514.45 C 750.57 510.85 750.46 507.25 750.30 503.66 C 746.01 503.56 741.73 503.62 737.46 503.68 C 729.74 503.60 722.02 503.67 714.31 503.72 C 712.64 522.11 712.11 540.59 710.89 559.02 C 709.38 585.70 707.55 612.37 704.98 638.98 C 703.06 656.90 701.52 675.00 696.67 692.43 C 694.94 698.72 692.18 705.66 685.77 708.48 C 684.60 708.52 683.43 708.51 682.27 708.46 C 673.59 704.41 670.77 694.46 668.19 686.04 C 662.75 665.79 660.59 644.85 658.17 624.08 C 654.65 592.06 651.98 559.95 649.18 527.87 C 648.63 520.11 647.67 512.38 647.28 504.61 C 639.63 504.47 631.90 502.98 624.33 504.70 C 622.56 524.38 621.27 544.11 619.82 563.82 C 618.20 588.24 616.20 612.63 614.49 637.03 C 612.11 670.74 609.36 704.46 604.57 737.92 C 602.65 748.96 601.00 760.23 596.51 770.58 C 594.61 774.57 592.33 779.13 587.87 780.69 C 584.42 782.08 580.43 780.57 578.23 777.72 C 574.07 772.50 572.30 765.89 570.59 759.57 C 566.32 742.01 564.83 723.93 562.85 706.00 C 557.27 648.02 554.98 589.79 551.44 531.67 C 551.49 522.72 550.71 513.78 549.84 504.88 C 544.63 504.62 539.43 503.49 534.22 504.23 C 528.98 504.89 523.72 504.13 518.47 504.42 C 517.50 515.71 516.68 527.03 516.27 538.37 C 514.28 565.57 512.64 592.82 510.00 619.98 C 507.78 642.09 505.91 664.34 500.91 686.04 C 498.53 694.20 496.01 703.48 488.57 708.52 C 486.87 708.72 485.15 708.72 483.46 708.54 C 480.10 706.66 477.41 703.70 476.09 700.07 C 471.09 687.29 469.53 673.53 467.93 660.00 C 464.82 633.30 463.46 606.43 461.41 579.64 C 461.41 570.57 460.52 561.54 460.18 552.48 C 459.34 536.60 458.83 520.71 457.92 504.83 C 453.82 504.70 449.72 504.72 445.62 504.75 C 434.96 504.99 424.25 504.16 413.64 505.32 C 411.51 547.23 409.59 589.17 406.16 631.00 C 404.61 648.03 403.16 665.11 399.98 681.93 C 398.51 690.28 396.39 698.85 390.84 705.53 C 388.87 706.06 386.93 706.69 385.02 707.38 C 383.82 706.91 382.63 706.46 381.44 706.00 C 377.29 701.78 374.77 696.31 373.16 690.69 C 367.95 672.55 366.20 653.68 364.15 634.98 C 360.17 597.54 358.07 559.95 355.56 522.39 C 355.39 516.59 354.77 510.82 354.55 505.03 C 343.73 504.41 332.87 504.58 322.05 505.00 C 321.70 511.13 321.60 517.27 321.48 523.42 C 319.43 565.25 317.75 607.10 315.65 648.93 C 313.18 704.01 310.40 759.09 305.35 814.00 C 303.52 830.94 302.05 848.06 297.49 864.54 C 296.47 868.47 294.82 872.22 292.68 875.67 C 290.12 877.72 286.44 880.02 283.39 877.45 C 279.21 873.69 277.71 867.96 276.09 862.78 C 272.04 843.25 270.58 823.31 268.56 803.51 C 264.07 740.70 261.57 677.78 259.17 614.87 C 257.79 578.91 256.66 542.93 255.21 506.97 C 255.48 505.09 253.52 504.51 252.07 504.73 C 239.43 504.81 226.79 504.51 214.15 504.68 C 213.60 510.73 213.27 516.80 212.95 522.87 C 211.60 547.25 209.93 571.60 208.13 595.95 C 206.16 620.97 204.29 646.04 200.44 670.86 C 199.25 678.05 197.80 685.24 195.47 692.16 C 194.32 695.53 192.39 699.11 188.92 700.52 C 186.03 701.62 183.38 699.35 181.85 697.14 C 177.95 691.51 176.55 684.65 175.02 678.10 C 170.81 657.70 168.92 636.92 166.91 616.22 C 163.76 580.14 161.33 544.00 159.11 507.86 C 159.01 506.70 158.90 505.55 158.78 504.41 C 153.88 504.10 148.99 504.43 144.10 504.65 C 133.56 504.60 123.01 504.36 112.49 505.10 C 112.11 509.70 111.68 514.29 111.31 518.89 C 110.25 532.12 108.53 545.29 107.40 558.52 C 104.76 576.73 103.14 595.26 97.57 612.89 C 96.00 617.13 94.27 622.10 89.95 624.24 C 87.10 625.46 84.48 623.18 82.94 621.01 C 79.99 616.82 78.76 611.75 77.44 606.88 C 73.60 591.29 71.92 575.29 69.73 559.42 C 68.51 543.95 66.80 528.53 65.59 513.06 C 65.36 510.09 65.05 507.14 64.71 504.19 C 60.01 504.12 55.32 504.61 50.63 504.59 C 46.30 503.66 41.86 503.49 37.45 503.62 C 37.44 498.47 37.45 493.31 37.45 488.16 C 46.12 488.32 54.79 488.02 63.46 487.82 C 62.87 483.52 63.31 478.80 60.71 475.06 C 61.10 474.22 61.49 473.40 61.88 472.58 L 60.16 471.89 C 60.27 469.78 60.40 467.68 60.54 465.59 C 59.68 464.67 58.83 463.76 57.98 462.85 C 58.83 462.60 60.54 462.11 61.39 461.86 C 61.27 457.56 61.46 453.23 60.96 448.95 C 59.38 439.93 60.40 430.69 58.85 421.66 C 55.63 388.05 54.35 354.11 47.18 321.01 C 46.27 314.44 44.07 308.18 41.99 301.91 C 44.64 301.48 45.01 304.25 45.78 306.09 C 48.36 313.13 50.13 320.45 52.76 327.48 L 51.17 327.38 C 53.26 338.18 54.58 349.11 55.99 360.02 C 58.92 389.37 61.88 418.73 63.94 448.16 C 64.37 453.41 64.54 458.68 65.18 463.91 C 65.69 469.36 66.24 474.82 66.56 480.29 C 66.72 482.80 66.89 485.31 67.07 487.83 C 80.68 488.32 94.32 488.36 107.92 487.75 C 107.73 483.44 107.60 479.07 108.85 474.90 C 114.56 428.72 115.56 381.92 124.50 336.15 C 126.21 328.38 127.87 320.22 132.68 313.68 C 134.09 311.79 136.22 309.44 138.85 310.47 C 142.48 311.90 144.46 315.64 145.85 319.07 C 149.34 328.33 150.85 338.17 152.44 347.89 C 155.62 366.90 156.45 386.23 159.75 405.23 C 164.08 430.22 167.51 455.39 172.88 480.19 C 173.34 482.78 173.93 485.34 174.51 487.90 C 183.82 488.41 193.17 488.27 202.48 487.66 C 203.97 483.22 205.19 478.68 205.70 474.01 C 207.01 459.38 207.14 444.66 208.11 429.99 C 209.25 404.67 210.60 379.36 211.95 354.05 C 214.34 311.26 216.71 268.42 221.77 225.83 C 223.44 213.87 224.69 201.61 229.33 190.35 C 230.81 187.12 232.88 182.78 237.10 183.04 C 241.34 183.20 243.76 187.31 244.89 190.92 C 250.28 207.25 251.23 224.55 253.21 241.51 C 259.89 316.57 262.51 391.90 265.69 467.17 C 265.80 474.04 266.47 480.89 266.60 487.76 C 278.97 488.44 291.41 488.35 303.79 487.80 C 307.11 462.43 309.58 436.96 312.30 411.53 C 315.16 387.39 316.24 363.09 318.99 338.95 C 320.60 324.44 322.21 309.81 326.67 295.84 C 328.91 291.95 330.87 286.50 336.01 285.90 C 341.08 285.86 344.64 290.33 346.49 294.59 C 351.56 306.13 353.51 318.71 355.35 331.10 C 359.20 357.72 361.09 384.58 363.55 411.35 C 364.91 436.87 366.74 462.37 368.43 487.87 C 378.48 488.34 388.58 488.35 398.63 487.84 C 400.63 443.93 402.42 400.01 403.69 356.07 C 404.63 347.21 404.76 338.28 404.77 329.38 C 406.09 295.90 407.49 262.43 409.03 228.97 C 410.59 194.97 412.15 160.96 414.70 127.02 C 416.25 106.79 417.81 86.53 421.12 66.49 C 422.38 59.44 423.72 52.28 426.76 45.74 M 435.82 83.01 C 433.90 96.12 432.55 109.31 431.47 122.52 C 430.99 130.01 430.14 137.49 429.91 145.00 C 429.06 155.62 428.37 166.26 427.89 176.90 C 425.13 223.34 422.97 269.83 421.40 316.32 C 420.61 326.87 420.36 337.48 420.34 348.06 C 422.44 338.37 424.59 328.05 431.54 320.52 C 434.07 319.07 437.58 316.83 440.01 319.74 C 446.36 327.21 448.99 336.81 451.49 346.07 C 450.97 332.25 450.42 318.43 449.72 304.62 C 448.73 270.08 446.94 235.54 445.26 201.02 C 444.94 197.59 445.14 194.07 444.34 190.70 C 444.76 181.76 443.49 172.84 443.23 163.90 L 443.10 163.75 C 442.57 149.78 441.54 135.83 440.19 121.92 C 439.27 108.92 437.93 95.88 435.82 83.01 M 729.39 227.09 C 728.06 240.00 727.11 252.95 726.14 265.90 C 725.84 269.13 725.55 272.37 725.76 275.61 C 724.81 280.33 724.82 285.18 724.50 289.97 C 724.28 297.86 723.21 305.72 723.47 313.62 C 722.52 317.32 722.80 321.20 722.48 324.98 C 722.36 332.55 721.43 340.09 721.53 347.67 C 720.48 358.85 720.05 370.11 720.22 381.34 C 722.40 376.08 724.03 370.34 728.05 366.12 C 730.53 363.52 735.03 362.35 737.98 364.89 C 742.24 368.42 743.83 373.98 745.55 379.02 C 745.33 371.92 745.17 364.81 744.68 357.72 C 743.92 338.79 743.18 319.85 741.94 300.95 C 741.56 292.16 741.39 283.31 740.23 274.59 C 740.55 268.72 739.61 262.89 739.37 257.04 C 738.63 248.52 738.25 239.95 737.24 231.46 C 736.49 219.81 735.45 208.14 733.44 196.63 C 731.48 206.69 730.40 216.90 729.39 227.09 M 236.85 204.88 C 235.01 209.94 234.17 215.28 233.38 220.59 C 231.43 234.50 229.47 248.47 228.75 262.50 C 227.54 269.08 227.50 275.82 226.77 282.47 C 226.30 290.53 225.16 298.57 225.33 306.65 C 224.59 308.68 224.75 310.89 224.59 313.01 C 223.54 332.49 221.95 351.95 221.28 371.44 C 220.74 373.93 220.70 376.48 220.62 379.01 C 220.35 389.13 219.24 399.22 219.33 409.35 C 221.28 399.85 223.47 390.28 227.61 381.45 C 229.39 377.65 232.56 373.90 236.98 373.43 C 240.06 373.19 242.50 375.54 243.97 378.00 C 247.44 383.87 249.37 390.51 250.64 397.17 C 250.89 385.11 250.04 373.05 249.60 361.00 C 249.33 355.56 249.29 350.09 248.62 344.67 C 248.58 344.42 248.49 343.92 248.44 343.67 C 248.79 337.76 248.10 331.85 247.86 325.95 C 246.88 305.30 245.40 284.68 244.12 264.05 C 244.01 262.92 243.96 261.76 243.51 260.72 C 243.81 255.10 242.86 249.52 242.44 243.93 C 241.03 230.86 239.62 217.74 236.85 204.88 M 1029.55 307.93 C 1026.52 318.02 1025.17 328.55 1023.99 338.99 C 1021.52 360.12 1019.37 381.33 1018.41 402.57 C 1016.85 416.75 1016.61 431.05 1015.58 445.29 C 1016.91 445.55 1018.28 445.83 1019.65 446.10 C 1016.80 455.24 1015.48 464.78 1014.22 474.25 C 1013.63 478.76 1013.41 483.31 1013.29 487.85 C 1027.03 488.34 1040.78 488.22 1054.52 488.04 C 1054.00 483.26 1053.47 478.47 1052.64 473.74 C 1052.32 470.27 1051.30 466.92 1050.48 463.56 C 1050.16 460.67 1049.59 457.77 1048.52 455.08 C 1048.10 450.17 1046.91 445.34 1045.21 440.72 C 1042.50 433.37 1039.69 426.01 1035.80 419.19 C 1033.57 419.23 1031.34 419.26 1029.12 419.29 C 1029.20 421.21 1029.28 423.13 1029.38 425.05 C 1028.48 424.74 1027.59 424.43 1026.71 424.14 C 1023.64 431.06 1020.47 438.12 1020.06 445.81 C 1018.55 443.71 1017.57 441.31 1016.59 438.95 C 1020.33 430.99 1022.13 421.60 1028.92 415.49 C 1030.61 415.40 1032.30 415.07 1034.02 415.17 C 1036.47 415.52 1038.15 417.58 1039.34 419.60 C 1042.96 425.69 1046.01 432.17 1047.94 439.01 C 1049.87 445.55 1050.85 452.33 1052.49 458.95 C 1052.01 448.59 1051.04 438.26 1050.37 427.91 C 1048.11 398.89 1046.12 369.80 1042.11 340.95 C 1041.28 332.01 1039.47 323.18 1037.43 314.44 C 1036.29 310.54 1035.54 306.28 1032.88 303.06 C 1030.46 303.12 1030.46 306.27 1029.55 307.93 M 833.70 313.77 C 832.98 316.14 832.38 318.55 831.84 320.97 C 833.36 321.49 834.87 322.00 836.41 322.53 C 835.70 319.57 835.59 316.28 833.70 313.77 M 330.74 368.46 C 329.53 378.18 328.93 388.00 328.45 397.77 C 327.41 405.22 327.32 412.76 327.14 420.27 C 328.79 417.90 330.06 415.25 332.02 413.13 C 335.27 412.49 338.60 412.88 341.87 413.11 C 344.54 416.25 346.90 419.63 348.88 423.25 C 348.78 416.80 348.26 410.38 347.65 403.96 C 346.65 391.84 346.08 379.63 344.35 367.60 C 343.30 350.88 340.57 334.26 337.10 317.88 C 333.75 334.53 331.64 351.50 330.74 368.46 M 129.83 341.80 C 128.39 349.97 126.44 358.13 126.19 366.45 C 127.91 361.73 129.67 356.84 133.13 353.08 C 134.79 351.22 137.57 349.98 140.00 351.06 C 143.13 352.33 145.08 355.23 146.83 357.95 C 146.43 350.28 145.04 342.69 143.42 335.19 C 142.16 329.90 140.92 324.47 137.92 319.85 C 132.96 326.09 131.60 334.24 129.83 341.80 M 528.88 363.17 C 532.58 361.12 536.95 360.78 540.79 362.74 C 539.18 349.15 537.64 335.55 535.23 322.07 C 531.82 335.53 530.51 349.41 528.88 363.17 M 831.29 327.05 C 830.53 331.88 829.82 336.72 829.34 341.59 C 828.57 348.68 827.73 355.77 827.25 362.89 C 825.45 382.90 824.01 402.95 823.30 423.03 C 824.88 419.60 826.56 415.93 829.73 413.67 C 832.05 412.71 834.66 412.96 837.12 412.73 C 841.97 417.15 845.46 422.84 847.62 429.00 C 846.31 408.51 845.08 387.93 842.38 367.59 C 842.10 358.89 840.55 350.29 839.61 341.66 C 839.14 336.42 838.22 331.08 835.27 326.61 C 833.93 326.75 832.60 326.90 831.29 327.05 M 428.21 345.21 C 425.70 355.31 423.91 365.59 422.40 375.89 C 419.49 397.56 416.63 419.29 416.39 441.19 C 418.45 429.12 420.34 416.93 424.31 405.30 C 424.86 403.48 425.86 401.73 425.97 399.83 C 428.09 396.04 430.48 391.56 435.03 390.40 C 437.99 389.67 440.40 391.83 442.99 392.80 C 448.11 398.23 451.06 405.12 453.62 412.02 C 451.69 390.90 449.18 369.76 444.55 349.05 C 442.87 341.90 441.00 334.47 436.01 328.82 C 431.86 333.39 429.69 339.32 428.21 345.21 M 126.30 376.94 C 123.60 387.79 121.76 398.86 120.91 410.01 C 119.64 425.07 117.51 440.10 117.39 455.23 C 119.11 446.74 121.68 438.33 125.81 430.69 C 127.83 427.27 130.08 423.53 133.90 421.93 C 137.24 420.65 141.01 421.33 143.95 423.27 C 149.56 429.78 152.46 438.01 154.69 446.18 C 154.56 435.04 153.50 423.93 152.57 412.83 C 151.60 401.76 151.10 390.58 149.32 379.61 C 149.36 373.44 148.66 367.05 145.32 361.70 C 143.45 358.38 140.58 353.40 136.03 354.85 C 130.63 361.00 128.25 369.16 126.30 376.94 M 527.45 377.05 C 526.25 391.48 524.75 405.89 524.19 420.37 C 526.18 415.60 530.64 411.33 535.97 411.03 C 539.77 411.93 542.25 415.33 544.86 417.98 C 544.14 403.92 543.22 389.85 541.73 375.85 C 541.47 372.17 539.17 367.61 534.98 367.61 C 530.73 368.51 527.41 372.72 527.45 377.05 M 728.06 381.11 C 724.56 390.07 722.88 399.59 720.93 408.97 C 719.81 415.28 718.28 421.60 718.38 428.06 C 719.56 419.61 721.46 411.26 723.97 403.11 C 725.63 398.63 727.37 393.21 732.05 391.06 C 736.14 389.28 739.62 392.65 742.30 395.27 C 740.93 387.84 739.35 380.11 734.77 373.90 C 731.05 374.40 729.31 378.00 728.06 381.11 M 228.08 395.70 C 230.03 394.24 231.81 392.48 234.02 391.41 C 237.92 390.32 241.58 392.47 244.66 394.60 C 243.12 389.28 241.34 383.66 237.07 379.84 C 232.20 383.82 229.85 389.86 228.08 395.70 M 233.81 396.70 C 230.81 399.76 227.60 402.95 226.23 407.12 C 224.27 412.57 222.53 418.18 221.86 423.95 C 218.71 441.82 215.97 459.81 215.42 477.97 C 215.24 481.32 215.12 484.68 215.08 488.05 C 228.20 488.30 241.33 488.14 254.45 488.13 C 254.40 482.94 254.43 477.75 253.84 472.60 C 253.64 455.98 253.15 439.28 250.05 422.90 C 249.14 414.32 247.50 405.12 241.78 398.32 C 239.97 395.90 236.32 394.38 233.81 396.70 M 734.29 395.05 C 730.24 398.52 727.98 403.55 726.79 408.65 L 726.55 408.81 C 722.04 425.51 720.04 442.74 717.80 459.85 C 716.77 469.15 715.48 478.43 715.05 487.78 C 726.56 488.49 738.13 488.20 749.66 487.90 C 749.53 477.80 749.49 467.67 748.61 457.60 C 748.59 446.39 747.97 435.16 747.19 423.97 C 747.02 418.41 745.35 413.04 743.60 407.80 C 741.57 402.90 738.81 398.06 734.29 395.05 M 427.16 410.25 C 423.89 422.57 420.82 435.09 420.36 447.88 C 420.09 450.45 420.52 453.84 417.64 455.06 C 419.12 460.59 416.47 466.13 416.51 471.71 C 415.46 477.13 415.04 482.64 414.52 488.12 C 418.78 488.18 423.04 488.31 427.30 487.97 C 433.71 488.28 440.20 488.37 446.61 487.91 C 450.03 488.25 453.47 488.23 456.90 488.13 C 456.95 483.97 456.99 479.80 456.50 475.66 C 456.08 466.12 455.65 456.57 455.53 447.01 C 455.40 433.06 452.12 419.22 446.38 406.54 C 444.15 402.15 441.31 396.88 436.02 395.88 C 430.77 398.61 429.04 405.05 427.16 410.25 M 930.59 406.37 C 924.65 422.73 923.17 440.20 921.12 457.35 C 924.15 453.69 927.64 449.09 932.95 449.32 C 937.56 449.40 940.37 453.65 942.84 456.97 C 942.23 451.06 941.45 445.16 940.74 439.27 C 938.91 426.92 937.72 414.20 932.78 402.62 C 931.80 403.72 931.02 404.97 930.59 406.37 M 334.04 424.03 C 330.39 428.66 329.04 434.61 327.55 440.20 C 323.21 455.66 324.46 471.94 323.12 487.80 C 333.20 488.14 343.29 488.43 353.36 487.79 C 352.84 478.51 352.42 469.23 351.67 459.97 C 351.22 451.26 348.66 442.84 345.83 434.66 C 344.14 430.46 342.20 426.24 339.07 422.91 C 337.66 421.03 335.12 422.55 334.04 424.03 M 830.10 423.97 C 827.35 428.92 825.51 434.38 824.26 439.89 C 821.06 451.20 820.48 463.06 820.50 474.76 C 819.89 479.19 819.68 483.66 819.75 488.13 C 830.40 488.22 841.05 488.16 851.70 488.17 C 851.60 486.09 851.53 484.01 851.48 481.94 C 850.76 468.26 849.90 454.33 845.16 441.35 C 843.65 434.62 841.20 427.67 836.32 422.62 C 834.48 420.25 831.24 421.72 830.10 423.97 M 530.90 425.89 C 527.96 430.16 526.03 435.05 524.63 440.02 C 523.25 443.91 522.33 447.97 521.81 452.07 C 520.66 463.95 520.31 475.89 519.46 487.80 C 529.27 488.14 539.06 488.27 548.87 487.82 C 548.75 481.17 548.64 474.52 548.09 467.89 C 547.41 459.36 547.78 450.62 545.45 442.32 C 544.16 435.78 541.41 429.52 537.74 423.98 C 535.54 422.70 532.19 423.60 530.90 425.89 M 633.91 426.99 C 632.18 435.44 630.77 443.95 629.42 452.46 C 633.34 451.28 637.38 451.89 641.16 453.28 C 639.95 443.26 637.91 433.36 635.57 423.56 C 634.53 424.43 634.09 425.69 633.91 426.99 M 123.86 444.79 C 120.17 455.86 117.56 467.26 115.31 478.70 C 114.73 481.73 114.36 484.80 114.05 487.88 C 128.63 488.43 143.24 488.18 157.82 488.02 C 157.56 481.47 157.12 474.88 155.59 468.49 C 154.90 462.41 153.15 456.50 151.69 450.58 C 149.67 443.60 148.10 436.23 143.83 430.20 C 142.02 427.63 139.26 425.07 135.86 425.53 C 129.35 429.91 126.49 437.74 123.86 444.79 M 165.30 488.01 C 167.19 488.07 169.07 488.13 170.96 488.19 C 167.37 470.86 164.45 453.41 161.41 435.99 C 162.66 453.33 163.85 470.68 165.30 488.01 M 924.65 462.63 C 919.91 470.09 918.07 479.04 918.20 487.80 C 927.39 488.30 936.63 488.36 945.83 487.86 C 945.51 479.87 944.16 471.78 940.72 464.50 C 939.06 461.20 936.81 457.65 933.07 456.54 C 929.35 456.78 926.61 459.73 924.65 462.63 M 627.45 470.85 C 626.79 476.57 626.33 482.31 625.66 488.03 C 632.24 488.29 638.83 488.11 645.42 488.16 C 644.77 482.56 644.59 476.89 643.46 471.36 C 642.48 467.05 638.68 464.35 635.04 462.36 C 631.65 464.06 627.77 466.71 627.45 470.85 M 804.72 487.94 C 805.23 487.93 806.25 487.90 806.76 487.88 C 807.05 479.52 807.96 471.17 807.59 462.80 C 806.89 471.21 805.69 479.56 804.72 487.94 M 309.56 469.04 C 309.21 475.52 308.11 481.92 307.58 488.38 L 308.77 487.56 C 309.68 481.47 309.72 475.20 309.56 469.04 M 502.37 484.22 C 501.53 485.30 501.45 486.42 502.14 487.58 C 504.12 488.32 504.59 482.88 502.37 484.22 M 92.01 504.63 C 84.79 504.66 77.57 504.36 70.36 504.83 C 71.42 509.34 73.02 513.70 74.25 518.16 C 75.20 523.03 78.05 527.27 80.66 531.41 C 82.76 534.40 86.29 538.02 90.30 536.34 C 97.11 532.56 99.87 524.78 101.99 517.75 C 103.05 513.42 104.01 509.06 104.78 504.67 C 100.56 503.71 96.27 504.70 92.01 504.63 M 305.55 504.32 C 304.01 510.41 302.88 516.67 302.00 522.90 C 300.12 530.95 298.13 539.02 294.73 546.60 C 293.34 549.06 291.91 551.96 289.00 552.88 C 286.14 554.16 283.52 552.05 280.98 551.04 C 272.89 540.01 270.21 526.19 267.46 513.07 C 268.20 529.05 268.61 545.09 270.85 560.95 C 273.28 579.45 275.29 598.12 280.54 616.09 C 281.62 619.52 282.68 623.16 285.18 625.87 C 286.11 626.88 288.00 627.11 288.83 625.82 C 292.76 621.59 293.91 615.68 295.59 610.35 C 300.42 591.39 302.98 571.95 305.34 552.55 C 305.90 547.52 306.76 542.49 306.54 537.41 C 307.56 529.67 307.54 521.83 307.79 514.04 C 307.74 510.34 308.51 506.54 307.34 502.95 C 306.89 503.29 306.00 503.98 305.55 504.32 M 483.43 504.25 C 483.66 505.59 484.38 505.82 485.57 504.93 C 485.33 503.57 484.61 503.34 483.43 504.25 M 664.23 504.27 C 664.31 518.20 667.25 532.03 672.34 544.96 C 673.79 549.85 676.06 554.63 679.58 558.37 C 681.19 559.98 683.92 561.89 686.04 559.99 C 689.77 556.30 691.20 551.00 692.65 546.11 C 697.14 532.64 696.95 518.21 696.85 504.18 C 685.97 504.59 675.11 504.39 664.23 504.27 M 802.44 505.28 C 799.53 520.07 797.50 535.35 790.67 548.98 C 788.89 550.60 787.47 552.85 784.98 553.43 C 782.60 554.02 780.50 552.45 778.52 551.44 C 771.37 544.01 769.07 533.53 766.40 523.91 C 766.45 536.94 767.19 549.95 767.89 562.96 C 769.62 577.36 771.03 591.83 773.80 606.08 C 775.26 614.74 776.88 623.61 780.74 631.58 C 781.60 632.91 782.61 635.31 784.59 634.64 C 787.52 632.61 788.72 629.02 789.94 625.83 C 791.64 620.69 793.23 615.47 794.03 610.11 C 798.63 590.17 800.62 569.76 803.24 549.50 C 804.85 534.60 805.34 519.60 805.55 504.64 C 806.08 502.34 802.17 503.68 802.44 505.28 M 865.11 503.64 C 865.03 509.51 865.30 515.42 866.44 521.20 C 867.57 528.45 868.99 535.77 871.42 542.70 C 872.57 548.19 874.72 553.50 877.71 558.25 C 879.28 560.85 882.59 563.41 885.67 561.58 C 891.28 558.38 893.75 551.82 895.65 545.99 C 898.97 537.74 901.07 528.99 902.65 520.25 C 903.80 515.03 904.54 509.72 904.89 504.39 C 900.34 503.24 895.65 503.65 891.02 503.60 C 882.38 503.56 873.74 503.62 865.11 503.64 M 166.66 504.75 C 167.29 509.45 168.30 514.09 169.14 518.76 C 172.00 531.59 174.36 544.81 180.34 556.65 C 182.04 559.59 184.64 563.93 188.68 562.66 C 191.69 560.75 193.11 557.21 194.54 554.10 C 197.99 545.50 199.80 536.36 201.53 527.31 C 203.22 519.85 204.06 512.21 204.45 504.58 C 202.81 504.89 200.93 504.57 199.46 505.48 C 197.26 508.27 195.31 511.27 192.88 513.89 C 189.58 514.05 185.94 514.76 182.88 513.16 C 180.11 510.83 178.42 507.54 176.28 504.69 C 173.07 504.74 169.87 504.76 166.66 504.75 M 181.06 504.94 C 182.06 506.54 182.96 508.26 184.31 509.63 C 188.40 510.51 193.90 509.25 195.31 504.78 C 190.57 504.22 185.79 504.40 181.06 504.94 M 270.03 504.81 C 271.22 514.45 273.16 524.13 276.45 533.28 C 278.13 538.77 280.71 544.34 285.13 548.16 C 287.53 549.81 289.74 546.87 290.92 545.04 C 293.67 540.01 295.45 534.43 296.49 528.80 L 296.49 528.83 C 298.98 521.08 300.12 512.89 300.96 504.81 C 290.65 504.69 280.34 504.70 270.03 504.81 M 369.46 504.75 C 370.25 512.25 370.06 519.86 371.26 527.32 C 371.45 528.84 371.87 530.35 372.51 531.76 C 373.46 537.82 375.21 543.75 377.32 549.50 C 379.09 553.67 381.08 558.29 385.09 560.78 C 387.79 561.34 389.09 558.23 390.20 556.34 C 393.65 548.54 395.89 540.14 396.51 531.62 C 396.53 531.27 396.55 530.58 396.57 530.24 C 397.68 521.79 397.47 513.24 397.73 504.74 C 388.31 504.74 378.89 504.73 369.46 504.75 M 474.67 504.50 C 474.61 511.76 474.87 519.04 475.50 526.27 C 475.31 531.94 476.43 537.55 477.38 543.12 C 478.92 548.19 480.08 553.51 482.88 558.08 C 483.72 559.05 484.49 560.63 486.01 560.53 C 488.98 559.62 490.74 556.82 492.15 554.25 C 494.46 549.68 496.08 544.78 497.29 539.81 C 499.59 533.16 500.12 526.06 500.70 519.10 C 500.91 514.32 501.24 509.56 501.35 504.78 C 498.96 504.96 495.93 503.98 494.23 506.22 C 491.73 509.17 488.31 510.96 484.86 512.57 L 484.45 512.58 C 483.81 512.64 482.53 512.77 481.89 512.84 C 479.75 509.84 477.50 506.90 474.67 504.50 M 569.51 504.87 C 571.49 514.76 572.59 525.02 576.55 534.37 C 577.11 537.68 578.79 540.66 580.32 543.61 C 581.39 545.73 583.43 547.97 586.07 547.32 C 589.45 546.08 591.29 542.74 592.69 539.65 C 594.73 534.98 596.41 530.14 597.56 525.18 C 599.46 518.50 600.76 511.65 601.92 504.81 C 591.11 504.71 580.31 504.62 569.51 504.87 M 766.40 505.30 C 769.06 515.68 770.43 526.48 774.61 536.41 C 776.20 541.06 778.50 547.47 784.07 548.26 C 787.34 546.83 788.74 543.24 790.09 540.19 C 792.07 535.03 793.57 529.66 794.59 524.23 C 796.18 517.85 797.56 511.38 797.98 504.82 C 789.32 504.63 780.67 504.81 772.02 504.71 C 770.12 504.66 768.25 504.93 766.40 505.30 M 956.67 504.66 C 957.33 513.59 958.59 522.49 960.39 531.26 C 961.59 539.72 963.15 548.13 964.64 556.54 C 966.71 567.00 968.36 577.73 972.64 587.56 C 973.65 591.80 975.59 596.14 978.88 599.12 C 980.72 601.04 984.26 601.24 985.93 598.99 C 990.80 592.89 992.49 585.04 994.53 577.69 C 998.29 561.94 1000.17 545.84 1002.99 529.92 C 1003.09 528.53 1003.68 527.29 1004.85 526.50 C 1004.22 523.37 1003.96 520.18 1004.52 517.03 C 1005.28 512.99 1005.70 508.90 1006.00 504.80 C 1005.46 504.93 1004.38 505.18 1003.85 505.30 C 1002.67 508.79 1002.19 512.48 1001.35 516.06 C 999.63 522.67 997.52 529.21 994.44 535.32 C 992.07 539.88 988.80 545.63 982.96 545.69 C 978.45 546.04 975.52 542.21 973.15 538.99 C 970.36 532.92 967.68 526.77 966.02 520.28 C 964.81 515.20 963.65 510.10 962.84 504.95 C 960.77 504.82 958.71 504.74 956.67 504.66 M 966.05 504.85 C 966.92 513.27 969.18 521.53 972.18 529.44 L 972.24 528.89 C 973.30 532.70 975.27 536.26 977.60 539.44 C 979.62 542.33 983.95 543.04 986.71 540.77 C 990.50 537.58 992.40 532.80 994.54 528.47 C 997.68 520.90 999.64 512.88 1000.89 504.80 C 989.27 504.75 977.66 504.65 966.05 504.85 M 606.58 505.89 C 604.21 517.09 602.05 528.41 598.14 539.20 C 595.99 544.25 593.84 549.97 588.96 553.01 C 584.95 555.30 579.84 553.15 577.71 549.30 C 572.78 541.29 570.23 532.06 568.39 522.90 C 568.25 534.00 569.48 545.11 571.86 555.94 C 574.04 566.58 576.51 577.40 582.14 586.83 C 584.31 586.93 587.01 587.64 588.68 585.78 C 592.43 581.66 594.28 576.24 596.01 571.04 C 600.24 557.02 603.23 542.63 605.17 528.11 C 606.03 520.74 607.04 513.33 606.58 505.89 M 70.04 516.35 C 69.17 517.55 69.41 518.27 70.76 518.49 C 71.63 517.28 71.39 516.56 70.04 516.35 M 105.66 516.67 C 104.19 523.56 100.66 529.96 100.14 537.04 C 98.75 541.63 96.04 545.68 93.68 549.83 C 89.81 552.75 84.70 552.20 80.14 552.48 C 81.05 551.78 81.95 551.07 82.86 550.38 C 75.75 542.05 72.85 531.15 71.59 520.49 C 71.31 520.69 70.75 521.10 70.48 521.30 C 70.32 526.24 71.39 531.14 71.64 536.07 C 73.94 557.65 76.00 579.34 80.69 600.56 C 82.19 606.64 83.63 613.11 87.83 617.98 C 89.74 616.76 91.37 615.11 92.05 612.91 C 96.62 601.08 98.12 588.39 100.07 575.94 C 101.01 568.45 102.17 560.95 102.61 553.42 C 103.55 547.98 103.84 542.45 104.46 536.98 C 105.01 530.22 106.16 523.46 105.66 516.67 M 76.22 531.81 C 78.28 538.10 81.53 543.91 84.88 549.59 C 87.44 548.83 90.60 548.79 92.41 546.54 C 94.80 543.28 96.51 539.55 97.50 535.65 C 94.47 537.95 91.15 540.90 87.03 540.25 C 82.07 539.61 79.69 534.75 76.22 531.81 M 171.37 571.31 C 172.70 592.84 174.84 614.35 177.11 635.82 L 177.33 636.04 C 177.93 645.88 179.72 655.61 181.22 665.34 C 182.61 672.48 184.10 679.68 186.93 686.42 C 191.54 677.55 192.01 667.27 193.38 657.55 C 194.77 647.29 196.27 636.94 196.48 626.58 C 197.27 624.12 197.21 621.49 197.44 618.95 C 198.08 608.42 199.42 597.92 199.59 587.37 C 200.68 574.21 201.87 560.99 201.62 547.77 C 199.67 555.94 196.90 565.41 188.93 569.65 C 186.57 569.52 184.35 568.74 182.20 567.82 C 174.68 559.94 171.84 549.00 169.31 538.71 C 169.12 549.60 170.41 560.47 171.37 571.31 M 1003.63 549.85 C 1001.25 564.69 998.99 579.69 993.89 593.89 C 991.81 598.73 989.35 604.53 983.97 606.39 C 980.50 607.49 977.75 604.87 975.17 603.05 C 973.07 599.86 970.88 596.69 969.59 593.08 C 964.85 580.48 962.15 567.24 959.56 554.07 C 960.93 574.46 961.82 594.89 963.30 615.27 C 965.43 652.87 967.89 690.49 971.36 728.00 C 971.61 729.03 970.37 731.47 971.75 731.66 L 971.56 731.98 C 973.44 744.26 974.43 756.68 976.72 768.92 C 977.62 774.05 978.68 779.20 980.51 784.09 C 981.11 785.12 981.37 787.24 983.05 786.96 C 986.03 778.86 987.69 770.28 988.56 761.71 C 990.28 751.89 991.21 741.91 992.11 731.98 C 993.73 717.02 994.86 702.02 995.96 687.02 C 996.40 677.24 997.76 667.47 997.50 657.69 C 998.60 652.75 998.52 647.54 998.56 642.49 C 998.91 640.03 999.20 637.57 999.30 635.09 C 999.92 621.71 1001.04 608.36 1001.53 594.97 C 1002.06 579.92 1003.45 564.91 1003.63 549.85 M 901.59 550.96 C 899.83 562.96 897.55 575.05 892.76 586.26 C 891.06 589.63 888.99 592.83 886.28 595.48 C 884.17 595.41 882.07 595.37 879.98 595.34 C 873.25 586.19 870.40 574.93 868.58 563.90 C 869.49 579.65 870.76 595.38 872.09 611.11 C 872.98 618.84 873.06 626.72 874.62 634.34 C 874.91 644.35 876.75 654.25 878.18 664.15 L 878.34 664.14 C 879.38 670.82 880.63 677.65 883.58 683.80 C 886.45 677.50 888.23 670.76 889.49 663.97 C 890.81 656.87 892.03 649.75 892.88 642.58 C 894.64 628.50 896.54 614.41 897.51 600.26 C 898.88 591.27 899.27 582.16 900.22 573.12 C 900.67 565.73 901.73 558.38 901.59 550.96 M 896.80 558.06 C 893.91 563.37 889.92 570.30 882.91 569.80 C 877.61 570.15 874.40 565.10 872.17 561.05 C 872.78 567.90 874.38 574.66 876.60 581.16 C 878.06 584.97 879.46 589.20 883.02 591.60 C 886.53 589.93 888.76 586.61 890.15 583.10 C 893.25 575.02 895.53 566.62 896.80 558.06 M 669.07 558.28 C 669.15 564.61 669.66 570.93 670.43 577.22 C 671.53 590.85 672.83 604.49 674.37 618.08 C 674.84 626.67 676.61 635.44 680.99 642.94 C 681.83 644.63 683.33 645.80 684.94 646.73 C 688.74 643.55 688.27 638.34 688.82 633.89 C 689.35 627.07 690.42 620.26 690.35 613.41 C 690.91 610.97 690.99 608.45 691.21 605.98 C 692.17 592.05 693.39 578.14 693.91 564.19 C 691.99 566.78 690.16 569.68 687.21 571.20 C 684.12 572.50 680.87 571.15 677.99 569.96 C 674.29 566.66 671.55 562.52 669.07 558.28 M 374.26 561.01 C 376.72 574.31 377.23 589.15 386.21 600.06 C 389.66 597.52 392.73 593.99 393.32 589.60 C 394.25 581.28 394.49 572.90 394.91 564.55 C 392.52 567.80 389.71 572.46 384.95 571.47 C 379.75 570.23 376.81 565.28 374.26 561.01 M 484.98 571.78 C 481.50 571.79 479.57 568.42 477.50 566.14 C 479.02 587.41 479.91 608.73 481.98 629.95 C 482.18 632.71 483.09 635.64 481.75 638.27 C 482.01 638.38 482.54 638.58 482.80 638.68 L 482.70 639.10 C 483.91 648.80 485.01 658.53 486.55 668.19 C 489.21 654.77 491.29 641.17 492.25 627.52 C 494.75 605.43 496.24 583.21 497.79 561.04 C 495.29 566.00 491.33 572.20 484.98 571.78 M 592.52 595.57 C 589.76 598.33 585.37 600.51 581.64 598.30 C 576.34 595.32 573.75 589.42 571.51 584.06 C 572.10 594.46 572.36 604.89 573.31 615.27 C 573.40 622.87 574.37 630.43 574.60 638.03 C 574.76 640.06 574.56 642.22 575.38 644.16 C 575.09 652.13 576.35 660.05 576.70 668.00 C 577.45 675.49 577.59 683.04 578.74 690.48 C 579.13 700.28 580.53 710.01 581.63 719.75 C 582.57 728.37 583.86 736.95 585.28 745.51 C 587.27 737.73 588.66 729.78 589.49 721.80 C 591.05 712.89 592.18 703.79 592.48 694.73 C 593.72 689.67 593.51 684.37 594.24 679.22 C 595.42 663.65 597.28 648.10 597.73 632.49 C 598.61 629.54 598.50 626.39 598.51 623.35 C 599.86 612.32 600.12 601.19 601.14 590.14 C 601.52 586.06 601.70 581.97 601.73 577.89 C 599.89 584.30 597.25 590.73 592.52 595.57 M 375.33 587.97 C 376.65 608.41 378.60 628.85 381.27 649.17 C 382.30 656.88 383.44 664.61 385.40 672.15 C 386.95 662.68 388.52 653.18 389.22 643.60 C 390.82 629.75 391.57 615.81 392.69 601.92 C 389.95 604.05 385.69 606.17 382.63 603.39 C 378.54 599.24 376.90 593.41 375.33 587.97 M 299.70 618.70 C 297.72 624.55 295.48 630.63 290.86 634.96 C 288.36 635.81 285.69 636.25 283.22 635.04 C 275.52 627.16 274.64 615.67 271.54 605.63 C 271.31 618.92 272.04 632.24 272.92 645.49 C 273.74 674.37 275.44 703.27 276.79 732.15 C 276.98 734.58 276.86 737.09 277.54 739.47 C 277.43 750.98 278.75 762.47 279.38 773.97 C 279.82 778.76 279.68 783.65 280.72 788.37 C 280.46 794.91 281.55 801.42 281.94 807.96 C 283.41 821.32 284.10 834.88 287.34 847.97 C 289.84 831.75 292.07 815.46 293.15 799.09 C 294.84 780.72 295.94 762.31 297.12 743.90 C 297.37 740.05 297.76 736.19 297.41 732.34 C 298.11 730.28 297.99 728.06 298.17 725.94 C 299.35 701.76 300.93 677.58 301.61 653.38 C 302.28 647.94 302.28 642.44 302.55 636.97 C 302.91 625.56 303.80 614.15 303.66 602.72 C 302.61 608.11 301.46 613.49 299.70 618.70 M 797.23 624.88 C 795.31 631.19 793.45 637.86 788.78 642.77 C 786.52 644.54 783.76 644.98 780.98 644.54 C 773.55 638.14 771.86 627.96 769.52 618.97 C 769.79 634.78 770.48 650.59 771.37 666.38 C 771.31 675.62 771.97 684.85 772.34 694.08 C 772.78 701.12 772.46 708.28 773.56 715.25 C 773.19 726.16 774.44 737.07 774.60 747.98 C 775.53 762.94 776.23 777.92 777.25 792.87 L 777.40 792.96 C 777.60 805.63 778.76 818.29 779.93 830.91 C 780.79 842.70 782.05 854.52 784.14 866.17 C 785.90 855.86 787.13 845.46 788.13 835.05 C 789.80 817.18 791.87 799.29 792.27 781.34 C 793.39 774.63 793.23 767.77 793.79 761.00 C 794.30 749.10 795.64 737.21 795.44 725.31 C 796.35 722.29 796.05 719.07 796.33 715.97 C 796.99 699.09 798.21 682.22 798.64 665.33 C 799.64 655.31 799.55 645.21 800.19 635.17 C 800.38 626.69 801.07 618.22 800.68 609.74 C 799.71 614.82 798.71 619.91 797.23 624.88 M 678.06 647.96 C 679.40 656.84 680.81 665.77 683.49 674.36 C 684.74 667.10 685.81 659.80 686.71 652.49 C 682.96 653.22 680.45 650.26 678.06 647.96 Z" />
</g>
<g id="#fae890ff">
</g>
<g id="#fbeb9fff">
</g>
<g id="#fceeabff">
</g>
<g id="#fcf1bdff">
</g>
<g id="#fae88eff">
</g>
<g id="#fcefb2ff">
</g>
<g id="#fbeca1ff">
</g>
<g id="#fdf5ceff">
</g>
<g id="#fdf3c2ff">
</g>
<g id="#fceeadff">
</g>
<g id="#fcf0b6ff">
</g>
<g id="#fdf7d7ff">
</g>
<g id="#fbeda7ff">
</g>
<g id="#fef0b3ff">
</g>
<g id="#f9da76ff">
</g>
<g id="#fceca3ff">
</g>
<g id="#fbeb9eff">
</g>
<g id="#fdf4c6ff">
</g>
<g id="#fcefb0ff">
</g>
<g id="#fceeacff">
</g>
<g id="#fefae3ff">
</g>
<g id="#fceeaeff">
</g>
<g id="#fbeca3ff">
</g>
<g id="#fcf3c3ff">
</g>
<g id="#fdf5cbff">
</g>
<g id="#fcf1bcff">
</g>
<g id="#fcf0b3ff">
</g>
<g id="#fef8dbff">
</g>
<g id="#fbea96ff">
</g>
<g id="#fbedaaff">
</g>
<g id="#fcf0b7ff">
</g>
<g id="#fbeca4ff">
</g>
<g id="#fdf2bfff">
</g>
<g id="#fdf6d2ff">
</g>
<g id="#fdf3c4ff">
</g>
<g id="#fbeba0ff">
</g>
<g id="#fae687ff">
</g>
<g id="#fefae6ff">
</g>
<g id="#fcf1bbff">
</g>
<g id="#fefae5ff">
</g>
<g id="#fef9e1ff">
</g>
<g id="#fbeeabff">
</g>
<g id="#fdf5caff">
</g>
<g id="#fdf6d0ff">
</g>
<g id="#fcefb1ff">
</g>
<g id="#fcf0b4ff">
</g>
<g id="#fbea97ff">
</g>
<g id="#fcf2beff">
</g>
<g id="#fcf1baff">
</g>
<g id="#fceba1ff">
</g>
<g id="#fbeb9dff">
</g>
<g id="#f5c551ff">
</g>
<g id="#fcf0b5ff">
</g>
<g id="#fbd970ff">
</g>
<g id="#fcedaaff">
</g>
<g id="#fceda7ff">
</g>
<g id="#fdf4c7ff">
</g>
<g id="#fbeca2ff">
</g>
<g id="#fdf7d6ff">
</g>
<g id="#fdf5cfff">
</g>
<g id="#fcf0b9ff">
</g>
<g id="#fbeeacff">
</g>
<g id="#fceb9fff">
</g>
<g id="#fbeb9cff">
</g>
<g id="#fbedabff">
</g>
<g id="#fcf3c2ff">
</g>
<g id="#fceeafff">
</g>
<g id="#fcf2c1ff">
</g>
<g id="#fdefabff">
</g>
<g id="#fcefafff">
</g>
<g id="#fdf4c8ff">
</g>
<g id="#fdf5ccff">
</g>
<g id="#f2cd69ff">
<path fill="#f2cd69" opacity="1.00" d=" M 70.04 516.35 C 71.39 516.56 71.63 517.28 70.76 518.49 C 69.41 518.27 69.17 517.55 70.04 516.35 Z" />
</g>
<g id="#fdf8dbff">
</g>
<g id="#fef9e0ff">
</g>
<g id="#fdf6d4ff">
</g>
<g id="#fdf2c1ff">
</g>
<g id="#fceba0ff">
</g>
<g id="#fdf4c9ff">
</g>
<g id="#fbeda9ff">
</g>
<g id="#fcefaeff">
</g>
<g id="#fceda9ff">
</g>
<g id="#fcf0b8ff">
</g>
<g id="#fae685ff">
</g>
<g id="#fae789ff">
</g>
<g id="#fbeca5ff">
</g>
<g id="#fef1b9ff">
</g>
</svg>
