<svg xmlns="http://www.w3.org/2000/svg" xmlns:xlink="http://www.w3.org/1999/xlink" width="1268.6" height="840.266" viewBox="0 0 1268.6 840.266">
  <defs>
    <filter id="Pfad_66" x="39.151" y="0" width="1169.193" height="840.266" filterUnits="userSpaceOnUse">
      <feOffset input="SourceAlpha"/>
      <feGaussianBlur stdDeviation="25" result="blur"/>
      <feFlood flood-color="#f8dd5a" flood-opacity="0.969"/>
      <feComposite operator="in" in2="blur"/>
      <feComposite in="SourceGraphic"/>
    </filter>
    <filter id="TrackStack" x="0" y="221.332" width="1268.6" height="403.6" filterUnits="userSpaceOnUse">
      <feOffset dx="3" dy="3" input="SourceAlpha"/>
      <feGaussianBlur stdDeviation="15" result="blur-2"/>
      <feFlood flood-color="#ec9e17"/>
      <feComposite operator="in" in2="blur-2"/>
      <feComposite in="SourceGraphic"/>
    </filter>
  </defs>
  <g id="TrackstackLogo2" transform="translate(42.3 75.113)">
    <g transform="matrix(1, 0, 0, 1, -42.3, -75.11)" filter="url(#Pfad_66)">
      <path id="Pfad_66-2" data-name="Pfad 66" d="M429.181,23.655c1.9-8.407,4.921-18.329,11.172-20.233,6.41-2.062,11.513,6.644,13.616,15.1,5.671,22.471,7,46.775,9.422,70.409,6.763,91.312,9.57,183.135,14.855,274.658,8.3-.141,16.6.053,24.9-.141,2.682-7.667,4.83-15.739,6.842-23.881,2.1-26.437,4.137-52.926,7.365-79.1,2.159-15.862,4.114-32.182,9.149-46.564,2.728-7.808,7.82-15.245,14-13.712,6.6.846,10.286,10.786,12.752,19.193,6.967,31.389,9.127,64.664,11.888,97.41,1.4,15.527,1.853,31.248,3.682,46.687,13.093.141,26.186-.018,39.29.088,4.012-19.352,7.058-39.338,12.809-57.7,2.375-7,5.023-14.611,9.717-18.453,4.83-4.071,11.059-1.974,14.991,3.684,3.467,4.847,5.66,11.4,7.456,17.977,4.6,17.466,6.933,36.059,9.319,54.477q18.48-.027,36.96,0c3.921-62.073,6.91-124.3,12.457-186.1,2.023-20.233,3.909-40.695,8.365-60.046,1.966-8.019,5.08-16.972,10.877-19.246,4.637-2.432,9.183,3.084,11.445,8.988,3.3,9.006,4.671,19.316,6.115,29.327,4.08,31.865,5.921,64.258,7.91,96.564,2.443,43.444,4.239,86.976,6.137,130.491,12.309-.053,24.617.141,36.926-.106,4.194-27.723,7.57-55.711,11.616-83.469,1.546-19,3.5-38.051,7.183-56.363,1.761-7.719,4.1-16.831,9.5-19.757,5.626-2.326,10.706,4.018,13.161,11.332,4.751,13.518,6.66,28.851,8.695,43.779,3.341,27.353,5.58,55.006,7.535,82.658a146.9,146.9,0,0,1,1.023,15.862c.25,1.516.75,4.547.989,6.063,14.627-.088,29.243.176,43.87-.141,3.273-21.149,5.421-42.968,10.934-63.113,2.466-8.988,6.989-19.087,13.968-19.14,6.91,2.485,10.024,13.606,13.4,22.136l.773.37c-.841,10.451,1.739,20.374,2.955,30.473.636,6.539,1.352,13.077,2.284,19.545.239,3.243.42,6.5.636,9.764,17.65-.053,35.3.441,52.951-.141.034-2.626.034-5.252.182-7.878,3.955-42.3,5.546-85.478,13.457-126.649,1.887-7.7,3.853-18.4,9.933-19.968,4.307,1,6.922,7.3,8.547,13.007,4.171,15.087,6.024,31.389,7.9,47.462,3.523,31.213,5.546,62.76,8.035,94.185,7.967.194,15.934.053,23.913.088,0,3.6,0,7.208.034,10.821-7.615.035-15.229-.053-22.833.088q.222,10.707.545,21.449c-1.807-6.979-1.977-14.364-2.785-21.625q-21.7.238-43.393.018c-4.319,58.178-6.274,116.832-12.07,174.763-1.534,15.386-3.273,30.825-6.512,45.612-1.58,6.38-3.5,13.553-7.695,16.778-3.909,2.556-7.887-1.71-9.944-6.68-4.626-10.945-6.524-23.934-8.49-36.465-6.024-43.568-9.024-87.946-12.377-132.13-1.864-20.268-3.205-40.642-5.342-60.839-9.695-.758-19.355-.088-29.05-.687-.682.247-2.046.74-2.728.969-3.841,36.218-6.637,72.736-11.786,108.6-1.887,12.284-3.9,24.745-7.785,35.954-1.9,5.446-4.592,10.645-8.41,12.954a7.256,7.256,0,0,1-9.49-2.379c-4.4-5.587-6.364-14.276-8.194-22.312-4.978-24.445-7.126-49.965-9.683-75.185-1.671-19.4-3.125-38.862-4.853-58.249-8.194-.053-16.4.687-24.583-.3-3.523.212-7.047.529-10.559.758-.114,6.75-.147,13.536-.841,20.215-.659,7.12-.193,14.4-1.2,21.449-1.466,36.43-3.523,72.789-5.33,109.183-2.25,37.593-4.205,75.309-8.3,112.567-1.682,14.117-3.307,28.481-7.206,41.594-1.909,5.851-5.035,12.3-9.626,12.6-5.512,1.04-9.24-7.067-11.093-14.029-4.046-16.109-5.523-33.363-7.3-50.318-7.365-84.385-9.638-169.564-14.036-254.39-12.445.106-24.89.035-37.335.018-2.8,39.637-4.887,79.5-10.058,118.63-1.784,12.037-3.5,24.48-7.694,35.161-2.091,5.6-5.921,9.993-10.206,9.958-4.66.247-8.956-4.018-11.684-9.623-4.921-9.922-7.228-22.171-9.456-34-6.047-35.2-8.933-71.4-13.059-107.174-.454-3.86-.75-7.772-1.011-11.667-4.114-1.815-8.365-.141-12.548-1-4-.687-7.99.053-11.956.74-4.387,43.849-7.455,87.981-11.843,131.83-2.091,19.475-4.183,39.056-7.922,57.966-2.046,9.447-4.273,19.493-9.183,26.331-4.114,5.992-11.138,6.785-15.513,1.075-4.205-5.27-6.353-13.289-8.126-20.973-3.773-17.5-5.649-35.778-7.547-53.948-4.194-44.008-6.865-88.316-9.581-132.588-.364-3.243-.671-6.521-.932-9.764a58.64,58.64,0,0,1-9.456-.634c-4.955-.723-9.888,1.2-14.843.352a21.749,21.749,0,0,0-8.467.264c-3.228,40.659-5.967,81.583-11.922,121.555-2.535,13.729-4.626,29.574-12.513,38.492-4.921,5.516-12.206,3.384-15.525-4.477-5.365-12.2-6.774-27.265-8.717-41.4-4.171-37.751-6.569-75.943-8.331-114.1-15.07-.317-30.129-.035-45.189-.141-1.727,26.243-3.023,52.573-5.319,78.746-1.33,17.148-3.023,34.262-5.614,51.058-1.421,8.372-2.887,16.99-6.035,24.251l-4.194,6.135-5.682,1.919c-4.114-.546-7.467-5.005-9.729-10.063-3.126-7.085-4.751-15.4-6.421-23.493-6.887-42.1-9.422-85.478-12.922-128.464-11.229-.018-22.469-.37-33.7.194-.182,18.647-2.068,37.117-2.694,55.711-4,65.351-6.4,131.108-13.945,195.789-1.841,13.2-3.489,26.895-7.956,38.668-2.182,6.2-6.967,10.363-11.49,7.931-4.035-2.767-6.206-9.235-7.8-15.245-5.5-26.666-7.194-54.706-9.342-82.341-4.535-66.779-7.1-133.822-10.036-200.794-14.036-.018-28.061.035-42.086-.018-2.75,38.245-5.228,76.631-10.172,114.382-1.852,12.249-3.489,25.009-7.819,35.848-1.955,5.164-6.331,8.442-10.013,5.657-4.421-3.278-6.6-10.628-8.376-17.289-3.887-15.686-5.819-32.341-7.74-48.819-3.194-29.75-5.6-59.711-7.751-89.673-6.956-1.8-13.979.811-20.992-.247-8.763.106-17.537.088-26.3.353-1.466,16.355-3.569,32.587-5.864,48.714-2.091,12.76-4.035,25.89-8.365,37.346-2.034,5.393-5.694,10.98-10.092,9.323C96.1,468.547,93.87,460.3,91.9,453.619c-6.262-25.115-8.251-52.062-11.195-78.411-4.739-1.586-9.513.617-14.286-.141a57.982,57.982,0,0,0-12.343-.687c.023-3.613.034-7.244.023-10.857,8.535.018,17.071.071,25.606-.035-.58-3.666-1.159-7.332-1.523-11.05l-1.455.07c.477-.916,1.421-2.749,1.9-3.666l-2.432.335c.114-1.357.341-4.089.466-5.464-.693-.211-2.057-.634-2.739-.828l3.569-.352c-.273-4.9-.409-9.817-.341-14.734l-.943.529q-.119-5.975-.352-11.949c-3.955-29.327-4.762-60.2-12.49-88.034-.682-5.534-2.989-9.975-4.944-14.558,3.341,5.746,5.217,13.024,8,19.352l-1.33-.335c2.2,8.283,3.285,17.078,4.819,25.679,3.387,27,6.66,54.072,8.8,81.372,1.046,7.772,1.875,15.615,2.33,23.528,14.013.264,28.038.282,42.052-.035-.148-2.926-.273-5.851-.4-8.777l1.068.37c.068-7.138,1.682-13.888,2.489-20.85,3.114-29.239,5.478-58.883,11.4-87.17,2.114-8.953,4.4-19.228,10.081-24.163,3.6-3.824,8.013.247,10.274,4.988,3.955,8.495,5.558,18.876,7.5,28.763,2.4,13.994,3.3,28.551,6.512,42.21,4.432,21.731,8.058,43.973,14.161,64.787,10.524-.053,21.06.388,31.573-.405.125-.493.375-1.516.489-2.009-.761.353-2.307,1.058-3.08,1.41,4.251-8.671,3.819-19.669,4.523-29.891,2.58-40.695,4.637-81.477,8.035-122.049,1.887-22.453,3.864-45.013,7.9-66.832,1.557-7.508,3.262-15.527,7.058-21.1,3.353-5.2,9.661-3.86,12.013,2.591,4.978,12.178,6.217,26.912,8.138,40.748,7.115,65.351,9.422,131.636,13.07,197.587,12.729-.035,25.447.018,38.165-.035,3.842-24.885,6.728-50.088,10.093-75.15,2.091-21.237,3.694-42.721,7.706-63.36,1.762-8.266,4-17.413,9.195-21.854,4.592-3.278,10.195-.352,13.206,5.693,5.251,10.1,7.319,23.053,9.422,35.354,5.853,39.214,8.535,79.362,11.6,119.282q15.752.159,31.516,0c1.682-36.324,3.887-72.63,4.921-109.007l.545-1.146c.989-30.666,2.6-61.3,4.4-91.858.966-23.053,2.773-45.964,4.171-68.947,2.171-23.088,3.66-46.581,8.342-68.876m8.035,43.109c-3.535,34.315-5.467,68.964-7.524,103.543-1.478,30.649-3.4,61.262-4.433,91.946a127.009,127.009,0,0,1,5.865-21.7c2.591-7.261,7.274-12.866,12.8-12.972,8.569,5.781,12.218,20.109,15.093,32.852-1.046-10.469-.614-21.149-1.739-31.6-.989-27.706-2.625-55.323-4.16-82.976-2.591-38.016-4.228-76.578-10.854-113.571-2.523,11.156-3.751,22.876-5.046,34.473M732.34,125.489c-5.1,24.216-6.728,49.7-9.058,74.8-.7,10.575-1.352,21.149-2.262,31.689-.7,17.149-2.523,34.156-2.773,51.34,3.739-7.649,7.069-18.981,14.184-19.457,7.3-1.022,11.138,10.874,13.593,19.634-2.273-46.07-4.591-92.246-9.729-137.8-1.148-6.768-1.125-14.487-3.955-20.2M242.369,154.217c-6.012,38.721-8.24,78.534-11.183,118.013-.739,13.13-2.046,26.207-2.1,39.426,2.421-11.808,5.058-23.987,10.32-33.539,3.433-6.151,9.99-8.865,14.309-3.313,4.967,6.609,7.149,16.708,9.388,25.908-1.034-27.124-2.694-54.177-4.455-81.2-2.353-28.974-3.58-58.76-10.343-86.289-3.739,5.428-4.478,13.729-5.933,20.991m775.059,77.248c-3.4,17.519-5.114,35.672-6.831,53.719-1.546,18.682-3.273,37.346-3.887,56.169a42.7,42.7,0,0,0,1.375-11.791l2.8-.3a140.894,140.894,0,0,0-6.035,34.174c14.184.211,28.379.123,42.575.053-.6-4.653-1.41-9.235-2.194-13.818-2.012-7.1-3.728-14.4-5.626-21.572-3.228-7.719-6.523-15.492-11.172-21.361-2.694.088-5.387.123-8.058.159.068,1.04.216,3.137.3,4.195-.454-.247-1.353-.723-1.8-.969-2.569,5.2-6.1,9.57-6.887,16.373-.557-1.04-1.091-2.1-1.614-3.137,3.273-6.081,5.842-13.694,10.57-17.413,3.068-1.392,6.955-1.551,9.445,2.1a55.794,55.794,0,0,1,8.762,16.338c2.512,7,3.342,15.227,6.444,21.748.023-7.156-.875-14.17-1.432-21.237-2.716-29.433-5.149-59.077-10.251-87.8-1.671-7.085-2.944-14.734-6.171-20.585-1.046-2.1-2.637-3.225-4.319-2.485-3.41,4.336-4.637,11.244-5.989,17.448m-189.665-2.1c2.319.758,4.637,1.533,6.99,2.221-1.194-4.018-2.455-7.949-3.853-11.773-1.091,3.155-2.126,6.345-3.137,9.552m-483.231-3.384c-4.842,21.29-6.615,43.867-8.558,66.127-.568,4.67-.8,9.411-1.046,14.135-.171,2.379-.443,4.723-.762,7.067a62.909,62.909,0,0,1,7.024-9.887c2.819-.106,5.637-.106,8.467.018a43.07,43.07,0,0,1,9.3,12.178c-3.137-30.12-4.762-61.209-12.263-89.69-.534.018-1.625.035-2.159.053M531.537,265.3c4.33-3.983,9.8-4.371,14.264-.652-1.83-13.06-3.262-26.384-6.626-38.756-4.273,12.178-5.489,26.137-7.638,39.408m-388.99-20.761a282.212,282.212,0,0,0-5.944,32.693c2.875-8.442,5.546-18.435,11.49-22.683,5.251-3.261,10.343,2.679,13.661,8.477-1.489-10.539-3.091-21.431-6.9-30.614-1.137-2.185-2.444-5.464-4.592-4.653-4,3.578-6.035,10.416-7.717,16.778m298.7-9.588c-3.591,3.278-6.274,8.389-7.888,14.311-5.217,17.924-7.558,37.417-10.217,56.521-.546,11.05-1.557,22.048-1.682,33.151l.58-4.23c.67,1.181,1.341,2.379,2,3.6-.716,3.842-1.33,7.737-2,11.6-.648,4.529-1.352,9.024-1.909,13.588,14.559.141,29.107.018,43.666.07a142.942,142.942,0,0,0-.909-16.708c-.716-12.566.364-26.313-4.217-37.469-3.387-10.31-9.058-21.378-17.207-21.22-8.308,4.195-10.865,18.805-13.877,30.014a85.043,85.043,0,0,0-1.671,13.148l-.17,1.428c.114,3.525-1.921,2.4-3.285,1.745,2.625-14.24,5.035-29.2,10.808-41.311,2.637-5.834,7.5-9.359,12.047-7.349,7.365,2.238,11.911,12.584,15.241,22.136.273-9.729-1.739-19.052-3.08-28.428-2.057-12.055-4.16-24.322-8.16-35.231a23.511,23.511,0,0,0-6.376-9.588c-.421.053-1.273.176-1.694.229m380.818,39.725c-1.068,13.447-2.546,26.859-2.818,40.413,2.364-4.494,4.785-9.588,8.524-11.421a36.853,36.853,0,0,1,5.921-.264c5.353,3.842,9.524,10.68,12.207,18.752-2.057-26.719-4.66-53.437-8.979-79.539a18.613,18.613,0,0,0-4.046-9.764c-1.819.07-3.626.141-5.421.194-2.773,13.535-3.91,27.67-5.387,41.629M134.831,290.153c-2.262,18.347-4.8,36.747-5.728,55.393,3.546-11.544,6.853-24.427,13.922-31.9,3.489-4.018,8.115-4.089,12.206-2.855,7.569,4.952,11.218,17.448,14.3,28.393-1.557-24.181-3.864-48.308-7.126-72.1-3.16-7.032-8.081-14.293-14.127-11.368-7.717,7.367-10.786,21.766-13.445,34.438m396.014-18.823c-1.386,13.712-3.012,27.388-3.944,41.223,1.591-2.45,3.205-4.847,4.83-7.226,2.739-1.463,5.467-3.913,8.467-3.454,3.035.952,5.717,3.49,8.342,5.939.341.934,1.023,2.785,1.364,3.719-.034-2.961-.227-5.922-.534-8.83-.887-10.663-1.614-21.431-3.16-31.9-3.717-8.054-11.445-6.116-15.366.529m192.279,14.364c-4.228,15.122-8.377,31.178-7.32,48.009,1.512-12.566,3.842-25.027,7.706-36.377,2.034-5.869,5.421-12.09,10.149-11.72,4.182-.405,7.41,4.159,10.3,8.178-2.353-8.054-3.921-18.241-9.3-22.788-5.921-1.833-9.286,7.861-11.536,14.7m-487.312,8.918c.932-.546,2.807-1.639,3.739-2.185-7.183,9.9-8.513,25.044-11.184,38.527-2.182,10.522-2.193,21.66-3.08,32.535,13.6.123,27.209.035,40.813.053-.375-10.4-.966-20.761-1.352-31.142-.318-9.041-2.239-17.66-3.807-26.3-1.4-7.913-5.148-15.122-10.3-17.642-3.637-1.762-7.547.317-10.3,4.177-.568-.846-1.137-1.674-1.693-2.52,2.091-1.2,4.171-2.5,6.217-3.913,4.683-.969,9.558.775,12.65,6.715-1.409-7.526-4.4-14.452-9.183-17.589-6.331,2.291-9.5,11.3-12.525,19.281m485.9,16.3c-3.819,17.1-6.183,34.879-8.388,52.609,12.172,0,24.344.106,36.517-.053-.784-16.5-1.364-33.028-2.341-49.489-.75-12.108-6.262-23.3-13.922-26.56-6.808,3.137-9.6,14.135-11.866,23.493m192.643,31.019c3.512-4.688,7.58-9.359,12.434-9.394,4.774-.67,8.6,4.441,12.093,8.742-1.716-9.693-2.75-19.651-4.8-29.2-1.546-7.244-3.137-15.016-7.16-19.915-8.228,13.342-9.763,32.605-12.57,49.771m-576.223-25.22a63.147,63.147,0,0,0-5.569,21.378c-.83,8.424-.648,17.008-1.83,25.362,10.661.159,21.333.123,32,.035-.875-9.535-1.216-19.193-2.489-28.622-2.557-10.257-6.308-21.008-13.082-25.767-3.75-.828-7.024,3.031-9.035,7.614M172.62,307.2a86.493,86.493,0,0,0,.273,11.385c1.489,14.963,2.75,30,4.023,45.013l7.9-.106c-5.33-18.065-8.615-37.311-12.195-56.292M534.083,312.5c-4.057,4.882-6.8,12-8.717,19.3-1.409,10.434-1.7,21.149-2.762,31.689,10.365.123,20.73.035,31.1.035-.159-4.441-.318-8.883-.671-13.306-1.068-8.09-.284-16.831-2.83-24.374a44.086,44.086,0,0,0-8.115-15.545c-2.7.141-5.773-.828-8,2.2m101.64-2.89c-2.58,8.424-4.126,17.448-5.876,26.331,4.91-2.591,10.081-1.533,14.889,1.022-.284-.582-.841-1.762-1.125-2.362a211.041,211.041,0,0,0-5.422-23.828c-.829-.388-1.648-.776-2.466-1.163m189.551,2.8c-5.853,10.363-8.831,24.216-8.41,37.963a120.427,120.427,0,0,0-.921,13.148q16.69.053,33.392,0c-.887-10.152-.671-20.92-3.74-30.261-2.739-8.953-5.716-19.052-11.774-23.581-2.9-2.362-6.41-.9-8.547,2.732m-692.91,27.071c-2.25,7.755-4.887,15.457-5.615,24,14.991.106,29.982.07,44.973.018-.5-13.659-4.239-26.419-8.6-38.086-2.966-8.142-8.479-14.963-14.854-13.306-7.967,4.353-12.422,16.232-15.9,27.371m668.85,24.11c1.4-.106,2.807-.194,4.217-.3.057-14.117,2.659-28.128,1.182-42.228-.773,14.452-3.364,28.428-5.4,42.528m-481-36.923c-.477,12.566-2.819,24.657-4.557,36.87l3.6-.106c.3-12.249,2.387-24.515.955-36.764M912.14,363.506c9.695.035,19.4.106,29.1-.035-.352-11.932-5.194-24.9-13.343-26.807-8.763.229-16.434,13.271-15.752,26.842M628.6,346.657c-.83,5.587-1.5,11.227-2.216,16.849q10.758.079,21.515,0c-.5-3.9-.966-7.808-1.512-11.7-.489-5.71-4.466-8.072-7.558-9.605-3.716-2.009-7.228,1.5-10.229,4.459M507.863,357.725c-1.421.6-2.853,4.018-1.58,5.922,2.057,1.48,4.182-5.746,1.58-5.922M313.9,374.345c-2.8,12.355-4.955,25.908-10.99,35.584-4,6.768-11.115,4.441-14.82-1.727-5.16-8.477-8.365-19.528-10.263-30.7l-1.5-.494c1.046,14.664.966,29.556,3.66,43.832,2.478,15.774,4.683,32.076,10.1,46.193,1.682,4.265,4.705,8.9,8.228,7.1,4.125-2.344,6.285-8.9,8.206-14.575,4.853-16.267,7.49-33.839,10.013-51.252.989-11.244,1.568-22.612,1.864-33.98-1.5.018-3,.018-4.5.018m485.5,0c-2.466,11.456-4.626,23.511-9.569,33.1-2.25,4.459-5.819,7.843-9.592,6.574-7.058-1.762-10.82-12.443-13.956-21.273q-1.262-5.049-2.466-10.081c-.307,13.324.659,26.613,1.512,39.849,2.466,16.549,4.467,33.61,9.547,48.819,1.625,4.212,3.807,9.658,7.365,9.658,4.228-1,6.569-7.437,8.49-12.725,5.682-17.713,8.228-37.293,11.149-56.4,1.955-12.266,1.671-24.991,2.716-37.452-1.75-.035-3.478-.053-5.194-.07m60.771-.018c-.284,11.614,2.762,22.559,6.217,32.587,2.251,6.133,5.046,12.76,9.592,15.1,5.08,2.749,10.513-1.815,13.82-7.72,5.91-11.156,9.627-24.762,11.6-38.809a14.164,14.164,0,0,0-5.3-1.163c-11.979.053-23.958.088-35.937,0M83.744,375.579a150.091,150.091,0,0,1,5.137,14.17c3.285,5.323,6.819,11.174,11.752,12.46,4.819,1.621,9.285-2.855,12.82-7.42a54.655,54.655,0,0,0,4.967-13.148c.386-1.428,1.171-4.248,1.557-5.675-.841-.388-2.534-1.163-3.376-1.551-10.9,1.868-21.924-.264-32.857,1.163m107.937-.3c.5.793,1.523,2.344,2.034,3.137.557.582,1.671,1.762,2.228,2.362,3.557.458,7.16.388,10.467-1.956.75-.758,2.25-2.256,3-3-5.865-1.833-11.82-.335-17.73-.546m286.974.106c1.318,11.385.057,23.846,4,34.191,1.773,4.988,4,11.156,8,12,6.308-.511,9.956-9.87,12.616-17.589,3.33-8.671,3.2-19.087,3.875-28.8-2.557.018-5.1.053-7.638.212-3.41,4.353-7.808,5.428-12.013,6.451.091-1.533.25-3.067.375-4.6a20.34,20.34,0,0,0,7.456-.916c-2.432-.881-4.853-1.586-7.3-2.256q-1.091,2.8-2.148,5.657c-1.534-1.463-3.035-2.908-4.546-4.388-.671,0-2.012.035-2.682.035m185.244.476c.568,7.931,1.625,15.915,4.3,22.859,3.3,9.27,7.229,20.056,14.411,22.665,4.876,2.1,8.649-4.759,10.774-10.628,4.649-10.733,4.955-24.181,4.739-36.676-4.33,1.8-8.763.123-13.127.846-4.989.864-9.956-.776-14.934-.018-2.046.353-4.421-1.339-6.16.952m-485.993-.6c3,12.866,5.785,26.137,10.888,37.434,2.739,5.816,6.831,11.72,11.854,10.663,4.933-1.71,7.831-9.006,10-15.492,3.137-10.346,6.069-21.167,6.569-32.693-2.114.035-4.217.123-6.319.264a50.553,50.553,0,0,1-6.49,7.155c-2.91.123-5.887.758-8.751-.317-2.353-1.586-4.262-4.371-6.149-6.979-3.876-.123-7.74-.106-11.6-.035m100.538-.018c3.4,12.9,6.228,28.869,14.934,35.531,3.637,3.437,7.751-.652,9.979-5.252,4.353-8.883,6.455-19.775,8.6-30.261-11.172-.088-22.344-.053-33.516-.018m97.674.053c.671,5.728,1.227,11.491,1.443,17.325,3.216,10.557,5.955,23.687,13.5,28.569,5.092,3.137,8.683-5.129,10.717-11.086,4.149-10.469,3.5-23.123,4.319-34.861-9.99-.035-19.98-.106-29.982.053m195.211-.035c2.671,11.6,5.228,24.233,11.3,32.746,3.876,5.3,9.683,2.943,12.911-2.538,5.046-8.46,7.535-19.616,10.138-30.191-11.456-.106-22.9-.088-34.346-.018m24.026,35.3c-4.069,5.3-10.422,5.675-14.434.053-6.08-8.477-8.8-20.938-11.615-32.464,1.352,11.421.716,23.423,3.512,34.385,2.637,11.015,5.512,22.771,11.809,30.085,2.569-.194,5.444.916,7.762-1.375,3.092-2.714,5.308-7.244,7.115-11.879a184.3,184.3,0,0,0,11.024-54.6l-2.239.917c-3.637,12.055-5.967,26.155-12.934,34.879m168.309-35.3c2.591,9.887,4.853,20.3,9.263,28.675,2.353,4.424,5.853,8.09,9.694,7.631,3-.758,5.274-4.388,6.956-8.107,3.751-8.512,5.8-18.453,7.8-28.181-11.24-.106-22.481-.088-33.71-.018m185.914,0c.83,10.381,3.512,20.074,5.319,30.085,3.069,14.24,5.808,29.309,12.1,41.082,2.842,5.657,7.808,8.883,12.309,6.221,4.978-4.071,7.615-12.249,9.9-19.81,3.5-12.531,5.33-25.943,8.285-38.738.875,3.172.17,6.644.284,9.958l-.966-.247c-.091,1.128-.3,3.384-.4,4.529-1.489,7.138-2.91,14.311-4.478,21.414-2.887,9.887-5.717,21.837-12.775,26.119-6.239,3.225-12.377-3.243-15.672-11.1-5.251-12.337-8.57-26.454-10.979-40.695-.727,9.2.819,18.241,1.2,27.371,2.83,37.434,5.194,75.009,9.149,112.214,1.648,14.857,3.387,29.785,6.535,44.1,1.455,6.2,3.023,13.112,6.99,16.479,4.569-8.583,6.194-19.651,7.865-30.208,5.694-39.355,7.842-79.662,10.967-119.617.716-15.668,2.08-31.248,2.876-46.916.216-5.887,2.478-12.531-.216-17.765q1.176-7.3,2.387-14.575c-1.114.088-3.341.247-4.444.335C993.481,386.1,989.9,396.6,984.2,403.778c-4.694,5.9-11.979,5.816-16.378-.793-5-7.385-8.353-17.342-10.172-27.6-2.694-.141-5.4-.176-8.069-.123m8.774.07c2.148,10.222,5.365,20.515,10.774,27.529,3.944,5.393,10.3,5.023,14.388.194,5.853-6.785,9.513-17.184,11.752-27.776-12.309-.07-24.618-.176-36.915.053m-875.9-1.745c2.319,23.9,4.955,47.9,9.774,70.973,1.83,7.508,3.58,15.756,7.694,21.061,2.387,3.12,5.8.723,7.4-2.767,4.262-8.777,5.989-19.686,7.922-30.067,1.966-11.72,3.33-23.634,4.785-35.531.762-7.579,2.08-15.157,1.3-22.894-.318,8.812-4.569,15.016-6.8,22.647l-1.114-.388c.023,1.287.08,3.842.1,5.129-2.148,3.684-4.126,7.913-7.024,10.275-2.694,1.322-5.58,1.163-8.376,1.251,3.5-1.833,7.922-.229,10.627-4.811,2.262-3.172,4.648-6.644,4.512-11.879-4.4,7.42-12.218,9.517-17.719,3.913-1.943-1.5-3.728-4.952-6.115-3.648a67.566,67.566,0,0,0,9.274,15.633c-5.933-5.34-10.922-14.769-11.115-25.767l-1.716,1.939c.261-1.022.761-3.049,1.012-4.071l-1.318-.088q-1.569-5.472-3.1-10.909m96.821,17.237c2.659,31.794,5.353,63.659,9.865,94.96,2.034,12.707,3.978,25.961,9.183,36.588,3.41-.511,4.251-6.292,5.569-10.257,4.421-21.026,6.285-43.039,8.274-64.84,1.125-15.421,2.648-30.807,3.1-46.317-2.432,9.235-5.274,20-11.479,24.551-4.285,3.349-9.524.793-12.911-3.965-5.819-8.125-8.66-19.792-11.6-30.719M897.41,406.651c-.455,2.221-.9,4.424-1.33,6.627-2.887,12.919-5.956,27.952-14.457,34.473-1.716-.018-3.421-.018-5.126.018-7.967-8.231-11.252-23.6-12.536-37.628a112.376,112.376,0,0,0,.375,22.63c2.114,22.066,3.932,44.29,7.8,65.827,1.466,8.054,3.216,16.267,6.887,22.612,4.444-5.8,6.422-14.5,8.217-22.771,3.557-17.342,5.671-35.3,7.728-53.19,1.239-10.592,2.41-21.185,3.319-31.865.671-5.217,1.159-10.486,1.682-15.756-.864,3-1.727,6.01-2.557,9.024m-223.5,59.764c.841,8.442,3.353,16.955,7.9,22.083,2.6,3.4,7.478,1.2,7.774-4.424,2.636-21.378,4.387-42.986,6.1-64.576-3.035,4.336-6.422,9.552-10.888,9.323-7.217.229-13.366-7.649-16.844-16.9,1.489,18.276,3.8,36.377,5.956,54.494m-294.26-51.569c3.091,13.729,4.5,31.865,14.116,38.509,2.83-2.027,6.115-3.86,7.672-8.389,1.2-8.442,1.318-17.149,2.148-25.679-2.512,4.582-5.649,9.394-9.8,9.447-6.012-.035-10.729-6.891-14.138-13.888M879.089,427.2c-5.307,1.075-9.274-5.182-12.82-10.24,1.455,9.87,3.955,20.268,9.047,26.983,4.08,5.005,9.149-.37,11.764-5.693,3.262-7.244,6.194-15.368,6.807-24.3-3.625,6.979-8.535,14.17-14.8,13.253m-388.774,1.674c-3.648.194-6.421-4-8.763-7.755,2.409,30.437,3.91,61.456,10.013,90.8,7.808-30.279,8.956-63.254,12.763-95-3.682,6.063-8.24,12.566-14.013,11.949m97.969,22.066c-6.91-.053-11.9-8.706-15.025-17.36.807,16.9,2.228,33.7,3.489,50.529,2.375,28.6,4.819,57.385,10.32,85.02.489.229,1.466.687,1.955.9q2.966-11.844,4.99-24.181c5.262-35.6,7.581-72.031,11.161-108.073.227-3.419.341-6.838.455-10.257-3.273,11.051-8.922,22.312-17.344,23.423m-205.8-1.657c2.568,21.96,4.33,44.572,10.365,65.051,5.058-20.409,6.353-42.422,8.4-63.888-2.9,4.107-7.217,6.345-10.922,3.578-4.649-4.371-7.035-12.584-8.422-20.409a93.507,93.507,0,0,0,.58,15.668m-67.635-6.521c-2.659,11.42-5.08,23.74-10.8,32.5-3.012,4.917-8.274,6.75-12.036,2.838-5.069-4.741-6.705-14.047-9.388-21.625-.568-.458-1.7-1.392-2.273-1.868.239,7.526.375,15.069.886,22.559,2.637,48.784,4.932,97.692,10.092,146.053,1.534,10.469,2.091,21.731,5.728,31.125,3.171-11.632,4.648-24.11,6.092-36.465,3.444-30.948,5.387-62.232,7.33-93.462,1.534-27.212,3.239-54.406,4.364-81.654m485.47,3.26c-2,11.844-4.625,23.828-9.456,33.68-2.853,6.01-8.3,9.746-12.877,6.257-5.353-4.617-7.808-14.029-9.854-22.471l-.841.7c-.25-2.379-.511-4.741-.8-7.1a72.612,72.612,0,0,0,.409,8.9c.523,8.248.091,16.6,1.159,24.762.864,27.159,2.717,54.213,3.978,81.336,2.535,32.464,3.546,65.633,9.718,97.093,2.068-2.485,1.955-7.385,2.876-10.927,5.955-38.051,8-77.23,10.672-116.056,1.773-32.041,4.159-64.047,5.012-96.176m-123.382,40.36a164.032,164.032,0,0,0,6.422,27.335c.375-.3,1.114-.9,1.478-1.2,1.262-6.451,2.614-12.883,3.353-19.528l-3.762.493C681.492,492.358,678.969,489.8,676.934,486.383Z" transform="translate(60.17 72)" fill="#ec9e17" stroke="#2e2d2c" stroke-width="0.2"/>
    </g>
    <g transform="matrix(1, 0, 0, 1, -42.3, -75.11)" filter="url(#TrackStack)">
      <text id="TrackStack-2" data-name="TrackStack" transform="translate(42.3 512.63)" fill="#d6d6d6" stroke="#2e2d2c" stroke-width="0.3" font-size="238" font-family="Roboto-Regular, Roboto"><tspan x="0" y="0">TrackStack</tspan></text>
    </g>
  </g>
</svg>
