<svg xmlns="http://www.w3.org/2000/svg" xmlns:xlink="http://www.w3.org/1999/xlink" width="510" height="451.732" viewBox="0 0 510 451.732">
  <defs>
    <filter id="Pfad_66" x="0" y="0" width="510" height="451.732" filterUnits="userSpaceOnUse">
      <feOffset input="SourceAlpha"/>
      <feGaussianBlur stdDeviation="25" result="blur"/>
      <feFlood flood-color="#f8dd5a" flood-opacity="0.969"/>
      <feComposite operator="in" in2="blur"/>
      <feComposite in="SourceGraphic"/>
    </filter>
  </defs>
  <g id="samplewave" transform="translate(20.92 71.884)">
    <g id="_fef4b6ff" data-name="#fef4b6ff" transform="translate(154.052 146.937)">
      <path id="Pfad_64" data-name="Pfad 64" d="M711.46,192.358a65.543,65.543,0,0,0,1.74-8.838c.476,2.93-.363,5.842-.381,8.776C712.365,192.317,711.91,192.336,711.46,192.358Z" transform="translate(-554.984 -183.52)" fill="#2e2d2c"/>
      <path id="Pfad_65" data-name="Pfad 65" d="M285.7,186.7c.461,2.546-.212,5.095-.308,7.64l-1.161.022A49.193,49.193,0,0,0,285.7,186.7Z" transform="translate(-284.23 -185.535)" fill="#2e2d2c"/>
    </g>
    <g id="_312b2bff" data-name="#312b2bff" transform="translate(54.08 3.116)">
      <g transform="matrix(1, 0, 0, 1, -75, -75)" filter="url(#Pfad_66)">
        <path id="Pfad_66-2" data-name="Pfad 66" d="M186.6,12.1c.671-3.676,1.739-8.015,3.947-8.847,2.265-.9,4.067,2.905,4.81,6.6,2,9.826,2.473,20.453,3.329,30.788,2.389,39.928,3.381,80.079,5.248,120.1,2.931-.062,5.866.023,8.8-.062.948-3.352,1.706-6.882,2.417-10.442.743-11.56,1.462-23.143,2.6-34.587.763-6.936,1.454-14.072,3.232-20.361.964-3.414,2.763-6.666,4.947-6,2.333.37,3.634,4.716,4.505,8.392,2.461,13.725,3.224,28.275,4.2,42.594.494,6.789.654,13.664,1.3,20.415,4.626.062,9.251-.008,13.881.039,1.417-8.462,2.493-17.2,4.525-25.231.839-3.06,1.775-6.389,3.433-8.069,1.706-1.78,3.907-.863,5.3,1.611a28.734,28.734,0,0,1,2.634,7.861A231.652,231.652,0,0,1,269,160.726q6.529-.012,13.058,0c1.385-27.143,2.441-54.354,4.4-81.374.715-8.847,1.381-17.794,2.955-26.256.695-3.506,1.795-7.421,3.843-8.416,1.638-1.064,3.244,1.349,4.043,3.93a78.577,78.577,0,0,1,2.16,12.824c1.442,13.933,2.092,28.1,2.795,42.224.863,19,1.5,38.032,2.168,57.059,4.349-.023,8.7.062,13.046-.046,1.482-12.122,2.674-24.36,4.1-36.5.546-8.308,1.237-16.638,2.538-24.646.622-3.375,1.45-7.36,3.357-8.639,1.988-1.017,3.782,1.757,4.65,4.955,1.678,5.911,2.353,12.616,3.072,19.143,1.18,11.961,1.972,24.052,2.662,36.144.249,2.281.313,4.609.361,6.936.088.663.265,1.988.349,2.651,5.168-.039,10.331.077,15.5-.062,1.156-9.248,1.915-18.789,3.863-27.6.871-3.93,2.469-8.346,4.935-8.369,2.441,1.087,3.541,5.949,4.734,9.679l.273.162c-.3,4.57.614,8.909,1.044,13.325.225,2.859.478,5.718.807,8.547.084,1.418.149,2.844.225,4.269,6.236-.023,12.471.193,18.707-.062.012-1.148.012-2.3.064-3.445,1.4-18.5,1.959-37.377,4.754-55.379.667-3.368,1.361-8.046,3.509-8.732,1.522.439,2.445,3.191,3.02,5.687a169.827,169.827,0,0,1,2.791,20.754c1.245,13.648,1.959,27.443,2.839,41.184,2.815.085,5.629.023,8.448.039,0,1.572,0,3.152.012,4.732-2.69.015-5.38-.023-8.067.039q.078,4.682.193,9.379a82.809,82.809,0,0,1-.984-9.456q-7.667.1-15.33.008c-1.526,25.439-2.216,51.087-4.264,76.418-.542,6.728-1.156,13.479-2.3,19.945-.558,2.79-1.237,5.926-2.718,7.337-1.381,1.117-2.787-.748-3.513-2.921-1.634-4.786-2.3-10.466-3-15.945-2.128-19.051-3.188-38.456-4.373-57.776-.659-8.863-1.132-17.771-1.887-26.6-3.425-.331-6.838-.039-10.263-.3-.241.108-.723.324-.964.424-1.357,15.837-2.345,31.805-4.164,47.488a109.373,109.373,0,0,1-2.75,15.721c-.671,2.381-1.622,4.655-2.971,5.664-1.116.709-2.441.462-3.353-1.04-1.554-2.443-2.248-6.242-2.895-9.757-1.759-10.689-2.518-21.848-3.421-32.876-.59-8.485-1.1-16.993-1.714-25.47-2.895-.023-5.794.3-8.685-.131-1.245.092-2.49.231-3.73.331-.04,2.952-.052,5.919-.3,8.839-.233,3.113-.068,6.3-.426,9.379-.518,15.929-1.245,31.828-1.883,47.742-.8,16.438-1.486,32.93-2.931,49.222a134.557,134.557,0,0,1-2.546,18.188c-.675,2.559-1.779,5.379-3.4,5.51-1.947.455-3.264-3.09-3.919-6.134-1.429-7.044-1.951-14.589-2.578-22-2.6-36.9-3.4-74.145-4.959-111.237-4.4.046-8.793.015-13.19.008-.988,17.332-1.727,34.764-3.553,51.873-.63,5.264-1.237,10.7-2.718,15.375-.739,2.451-2.092,4.37-3.606,4.354-1.646.108-3.164-1.757-4.128-4.208-1.739-4.339-2.554-9.695-3.341-14.866-2.136-15.39-3.156-31.219-4.614-46.864-.161-1.688-.265-3.4-.357-5.1-1.453-.794-2.955-.062-4.433-.439a10.079,10.079,0,0,0-4.224.324c-1.55,19.174-2.634,38.471-4.184,57.645-.739,8.516-1.478,17.078-2.8,25.347-.723,4.131-1.51,8.523-3.244,11.514-1.454,2.62-3.935,2.967-5.481.47-1.486-2.3-2.245-5.811-2.871-9.171-1.333-7.653-2-15.644-2.666-23.59-1.482-19.243-2.425-38.618-3.385-57.977-.129-1.418-.237-2.851-.329-4.269a16.81,16.81,0,0,1-3.341-.277c-1.751-.316-3.493.524-5.244.154a6.244,6.244,0,0,0-2.991.116c-1.14,17.779-2.108,35.674-4.212,53.152-.9,6-1.634,12.932-4.421,16.831-1.739,2.412-4.312,1.48-5.485-1.957-1.9-5.333-2.393-11.922-3.08-18.1-1.474-16.507-2.321-33.208-2.943-49.892-5.324-.139-10.644-.015-15.965-.062-.61,11.475-1.068,22.989-1.879,34.433-.47,7.5-1.068,14.982-1.984,22.326a56.284,56.284,0,0,1-2.132,10.6c-.751,2.189-2.088,3.846-3.489,3.522-1.454-.239-2.638-2.189-3.437-4.4a61.921,61.921,0,0,1-2.269-10.273c-2.433-18.411-3.329-37.377-4.565-56.173-3.967-.008-7.938-.162-11.905.085-.064,8.154-.731,16.23-.952,24.36-1.413,28.576-2.261,57.329-4.927,85.612-.65,5.772-1.233,11.76-2.811,16.908-.771,2.713-2.461,4.531-4.059,3.468-1.425-1.21-2.192-4.038-2.754-6.666-1.943-11.66-2.542-23.921-3.3-36.005-1.6-29.2-2.51-58.516-3.545-87.8-4.959-.008-9.914.015-14.868-.008-.972,16.723-1.847,33.508-3.594,50.016-.654,5.356-1.233,10.936-2.762,15.675-.691,2.258-2.237,3.691-3.537,2.474-1.562-1.433-2.333-4.647-2.959-7.56a210.736,210.736,0,0,1-2.734-21.347c-1.128-13.009-1.98-26.11-2.738-39.211-2.457-.786-4.939.355-7.416-.108-3.1.046-6.2.039-9.291.154-.518,7.152-1.261,14.249-2.072,21.3-.739,5.58-1.425,11.321-2.955,16.33-.719,2.358-2.012,4.8-3.566,4.077-1.755-.979-2.542-4.585-3.236-7.506-2.212-10.982-2.915-22.765-3.955-34.287-1.674-.694-3.361.27-5.047-.062a16.615,16.615,0,0,0-4.361-.3c.008-1.58.012-3.167.008-4.747,3.015.008,6.031.031,9.046-.015-.2-1.6-.41-3.206-.538-4.832l-.514.031c.169-.4.5-1.2.671-1.6l-.859.146c.04-.593.12-1.788.165-2.389-.245-.092-.727-.277-.968-.362l1.261-.154c-.1-2.142-.145-4.293-.12-6.443l-.333.231q-.042-2.613-.124-5.225c-1.4-12.824-1.682-26.326-4.413-38.494a26.783,26.783,0,0,0-1.747-6.366c1.18,2.512,1.843,5.7,2.827,8.462l-.47-.146c.779,3.622,1.16,7.468,1.7,11.228,1.2,11.806,2.353,23.644,3.108,35.581.369,3.4.663,6.828.823,10.288,4.951.116,9.906.123,14.856-.015-.052-1.279-.1-2.559-.141-3.838l.377.162c.024-3.121.594-6.073.879-9.117,1.1-12.785,1.935-25.748,4.027-38.117.747-3.915,1.554-8.408,3.562-10.566,1.273-1.672,2.831.108,3.63,2.181,1.4,3.715,1.963,8.254,2.65,12.577.847,6.119,1.164,12.485,2.3,18.457,1.566,9.5,2.847,19.228,5,28.329,3.718-.023,7.44.17,11.154-.177.044-.216.133-.663.173-.879-.269.154-.815.462-1.088.617,1.5-3.792,1.349-8.6,1.6-13.07.911-17.794,1.638-35.628,2.839-53.368.667-9.818,1.365-19.683,2.791-29.223.55-3.283,1.152-6.789,2.493-9.225,1.184-2.273,3.413-1.688,4.244,1.133,1.759,5.325,2.2,11.768,2.875,17.818,2.514,28.576,3.329,57.56,4.618,86.4,4.5-.015,8.99.008,13.483-.015,1.357-10.882,2.377-21.9,3.566-32.861.739-9.286,1.3-18.681,2.722-27.705.622-3.614,1.413-7.614,3.248-9.556,1.622-1.433,3.6-.154,4.666,2.489,1.855,4.416,2.586,10.08,3.329,15.459,2.068,17.147,3.015,34.7,4.1,52.158,3.71.046,7.424.039,11.134,0,.594-15.883,1.373-31.759,1.739-47.665l.193-.5c.349-13.409.92-26.8,1.554-40.167.341-10.08.98-20.1,1.474-30.148.767-10.1,1.293-20.368,2.947-30.117m2.839,18.85c-1.249,15-1.931,30.156-2.658,45.276-.522,13.4-1.2,26.788-1.566,40.205a66.269,66.269,0,0,1,2.072-9.487c.915-3.175,2.57-5.626,4.521-5.672,3.028,2.528,4.316,8.793,5.332,14.365-.369-4.578-.217-9.248-.614-13.818-.349-12.115-.928-24.191-1.47-36.283-.915-16.623-1.494-33.485-3.835-49.661-.891,4.878-1.325,10-1.783,15.074M293.7,56.626c-1.8,10.589-2.377,21.733-3.2,32.707-.249,4.624-.478,9.248-.8,13.856-.249,7.5-.891,14.935-.98,22.449,1.321-3.345,2.5-8.3,5.011-8.508,2.578-.447,3.935,4.755,4.8,8.585-.8-20.145-1.622-40.336-3.437-60.258-.406-2.959-.4-6.335-1.4-8.832M120.6,69.188c-2.124,16.931-2.911,34.341-3.951,51.6-.261,5.741-.723,11.46-.743,17.24.855-5.163,1.787-10.489,3.646-14.666,1.213-2.69,3.529-3.876,5.055-1.449,1.755,2.89,2.526,7.306,3.317,11.329-.365-11.86-.952-23.69-1.574-35.5-.831-12.67-1.265-25.694-3.654-37.731-1.321,2.374-1.582,6-2.1,9.179m273.821,33.778c-1.2,7.66-1.807,15.6-2.413,23.49-.546,8.169-1.156,16.33-1.373,24.561a22.911,22.911,0,0,0,.486-5.156l.988-.131a74.941,74.941,0,0,0-2.132,14.943c5.011.092,10.026.054,15.041.023-.213-2.035-.5-4.038-.775-6.042-.711-3.106-1.317-6.3-1.988-9.433a44.166,44.166,0,0,0-3.947-9.34c-.952.039-1.9.054-2.847.069.024.455.076,1.372.1,1.834-.161-.108-.478-.316-.634-.424-.907,2.273-2.156,4.185-2.433,7.159-.2-.455-.385-.917-.57-1.372,1.156-2.659,2.064-5.988,3.734-7.614a2.232,2.232,0,0,1,3.337.917,26.681,26.681,0,0,1,3.1,7.144c.887,3.059,1.18,6.658,2.277,9.51.008-3.129-.309-6.2-.506-9.286-.96-12.87-1.819-25.832-3.622-38.394-.59-3.1-1.04-6.443-2.18-9-.37-.917-.932-1.41-1.526-1.087-1.2,1.9-1.638,4.917-2.116,7.63m-67.007-.917c.819.331,1.638.67,2.469.971-.422-1.757-.867-3.476-1.361-5.148-.385,1.379-.751,2.774-1.108,4.177m-170.721-1.48c-1.711,9.31-2.337,19.182-3.024,28.915-.2,2.042-.281,4.115-.369,6.181-.06,1.04-.157,2.065-.269,3.09a28.255,28.255,0,0,1,2.481-4.323,29.789,29.789,0,0,1,2.991.008,18.935,18.935,0,0,1,3.285,5.325c-1.108-13.171-1.682-26.765-4.332-39.219-.189.008-.574.015-.763.023m66.067,17.193c1.53-1.742,3.461-1.911,5.039-.285a168.857,168.857,0,0,0-2.341-16.947c-1.51,5.325-1.939,11.429-2.7,17.232M85.335,108.684c-.932,4.624-1.6,9.433-2.1,14.3,1.016-3.691,1.959-8.061,4.059-9.918,1.855-1.426,3.654,1.171,4.826,3.707-.526-4.609-1.092-9.371-2.437-13.386-.4-.956-.863-2.389-1.622-2.035-1.413,1.564-2.132,4.555-2.726,7.337m105.529-4.192a14.221,14.221,0,0,0-2.787,6.258c-1.843,7.838-2.67,16.361-3.61,24.715-.193,4.832-.55,9.641-.594,14.5l.2-1.85c.237.516.474,1.04.707,1.572-.253,1.68-.47,3.383-.707,5.071-.229,1.981-.478,3.946-.675,5.942,5.144.062,10.283.008,15.427.031-.032-2.451-.06-4.909-.321-7.306-.253-5.495.128-11.506-1.49-16.384-1.2-4.508-3.2-9.348-6.079-9.279-2.935,1.834-3.839,8.223-4.9,13.124a45.616,45.616,0,0,0-.59,5.749l-.06.624c.04,1.541-.679,1.048-1.16.763.928-6.227,1.779-12.77,3.819-18.064.932-2.551,2.65-4.092,4.256-3.214,2.6.979,4.208,5.5,5.384,9.679a89.375,89.375,0,0,0-1.088-12.431,106.861,106.861,0,0,0-2.883-15.405,10.688,10.688,0,0,0-2.253-4.192c-.149.023-.45.077-.6.1M325.4,121.862c-.377,5.88-.9,11.745-1,17.671.835-1.965,1.69-4.192,3.011-4.994a10.542,10.542,0,0,1,2.092-.116c1.891,1.68,3.365,4.67,4.312,8.2-.727-11.683-1.646-23.366-3.172-34.78a9.239,9.239,0,0,0-1.429-4.269c-.642.031-1.281.062-1.915.085-.98,5.919-1.381,12.1-1.9,18.2M82.608,128.628c-.8,8.023-1.694,16.068-2.024,24.222,1.253-5.048,2.421-10.681,4.919-13.949a3.379,3.379,0,0,1,4.312-1.248c2.674,2.166,3.963,7.63,5.051,12.415-.55-10.573-1.365-21.124-2.518-31.528-1.116-3.075-2.855-6.25-4.991-4.971-2.726,3.221-3.81,9.518-4.75,15.059M222.516,120.4c-.49,6-1.064,11.976-1.393,18.026.562-1.071,1.132-2.119,1.706-3.16.968-.64,1.931-1.711,2.991-1.51a8.84,8.84,0,0,1,2.947,2.6c.12.408.361,1.218.482,1.626-.012-1.295-.08-2.589-.189-3.861-.313-4.662-.57-9.371-1.116-13.949-1.313-3.522-4.043-2.674-5.429.231m67.93,6.281c-1.494,6.612-2.959,13.633-2.586,20.993a95.642,95.642,0,0,1,2.722-15.906c.719-2.566,1.915-5.287,3.586-5.125,1.478-.177,2.618,1.819,3.638,3.576-.831-3.522-1.385-7.976-3.285-9.965-2.092-.8-3.28,3.437-4.075,6.427m-172.162,3.9,1.321-.956c-2.538,4.331-3.007,10.951-3.951,16.847-.771,4.6-.775,9.471-1.088,14.226,4.806.054,9.613.015,14.419.023-.132-4.547-.341-9.078-.478-13.618a97.343,97.343,0,0,0-1.345-11.5c-.494-3.46-1.819-6.612-3.638-7.714-1.285-.771-2.666.139-3.638,1.826-.2-.37-.4-.732-.6-1.1.739-.524,1.474-1.094,2.2-1.711,1.654-.424,3.377.339,4.469,2.936-.5-3.291-1.554-6.319-3.244-7.691-2.236,1-3.357,4.94-4.425,8.431m171.664,7.129c-1.349,7.475-2.184,15.251-2.963,23,4.3,0,8.6.046,12.9-.023-.277-7.213-.482-14.442-.827-21.64-.265-5.294-2.212-10.188-4.919-11.614-2.405,1.372-3.393,6.181-4.192,10.273m68.059,13.564c1.241-2.05,2.678-4.092,4.393-4.108,1.686-.293,3.04,1.942,4.272,3.822-.606-4.239-.972-8.593-1.694-12.77-.546-3.167-1.108-6.566-2.53-8.708-2.907,5.834-3.449,14.257-4.441,21.763M154.433,140.242a32.955,32.955,0,0,0-1.967,9.348c-.293,3.684-.229,7.437-.646,11.09,3.766.069,7.537.054,11.307.015-.309-4.169-.43-8.392-.879-12.515-.9-4.485-2.228-9.186-4.622-11.267-1.325-.362-2.481,1.326-3.192,3.329m-58.474-4.162a46.782,46.782,0,0,0,.1,4.978c.526,6.543.972,13.117,1.421,19.683l2.791-.046c-1.883-7.9-3.044-16.315-4.308-24.615m127.7,2.32a25.222,25.222,0,0,0-3.08,8.439c-.5,4.562-.6,9.248-.976,13.856,3.662.054,7.324.015,10.986.015-.056-1.942-.112-3.884-.237-5.818-.377-3.537-.1-7.36-1-10.658a21.166,21.166,0,0,0-2.867-6.8c-.956.062-2.04-.362-2.827.963m35.908-1.264c-.911,3.684-1.458,7.63-2.076,11.514,1.735-1.133,3.562-.67,5.26.447-.1-.254-.3-.771-.4-1.033-.43-3.607-1.181-7.013-1.915-10.419-.293-.17-.582-.339-.871-.509m66.966,1.225a39.185,39.185,0,0,0-2.971,16.6c-.209,1.9-.285,3.822-.325,5.749q5.9.023,11.8,0c-.313-4.439-.237-9.148-1.321-13.232-.968-3.915-2.02-8.331-4.16-10.311-1.024-1.033-2.265-.393-3.02,1.195M81.737,150.2a64.227,64.227,0,0,0-1.984,10.5c5.3.046,10.592.031,15.888.008a63.949,63.949,0,0,0-3.04-16.654c-1.048-3.56-3-6.543-5.248-5.818-2.815,1.9-4.389,7.1-5.617,11.968m236.3,10.543c.494-.046.992-.085,1.49-.131.02-6.173.94-12.3.418-18.465-.273,6.319-1.189,12.431-1.907,18.6M148.1,144.6c-.169,5.495-1,10.782-1.61,16.122l1.273-.046c.1-5.356.843-10.72.337-16.076M357.224,160.7c3.425.015,6.854.046,10.279-.015-.124-5.217-1.835-10.889-4.714-11.722-3.1.1-5.806,5.8-5.565,11.737m-100.173-7.368c-.293,2.443-.53,4.909-.783,7.368q3.8.035,7.6,0c-.177-1.7-.341-3.414-.534-5.117a4.93,4.93,0,0,0-2.67-4.2c-1.313-.879-2.554.655-3.614,1.95m-42.654,4.84a2.4,2.4,0,0,0-.558,2.589c.727.647,1.478-2.512.558-2.589m-68.524,7.267c-.988,5.4-1.751,11.329-3.883,15.56-1.413,2.959-3.927,1.942-5.236-.755a45.568,45.568,0,0,1-3.626-13.425l-.53-.216c.369,6.412.341,12.924,1.293,19.166.875,6.9,1.654,14.026,3.57,20.2.594,1.865,1.662,3.892,2.907,3.106,1.458-1.025,2.22-3.892,2.9-6.373a192.682,192.682,0,0,0,3.537-22.411c.349-4.917.554-9.888.659-14.858-.53.008-1.06.008-1.59.008m171.524,0c-.871,5.009-1.634,10.281-3.381,14.473-.8,1.95-2.056,3.429-3.389,2.875-2.493-.771-3.823-5.441-4.931-9.3q-.446-2.208-.871-4.408c-.108,5.826.233,11.637.534,17.425.871,7.236,1.578,14.7,3.373,21.347.574,1.842,1.345,4.223,2.6,4.223,1.494-.439,2.321-3.252,3-5.564,2.008-7.745,2.907-16.307,3.939-24.661.691-5.364.59-10.928.96-16.376-.618-.015-1.229-.023-1.835-.031m21.47-.008a49.333,49.333,0,0,0,2.2,14.249c.8,2.682,1.783,5.58,3.389,6.6,1.795,1.2,3.714-.794,4.883-3.375a61.891,61.891,0,0,0,4.1-16.97,4.208,4.208,0,0,0-1.871-.509c-4.232.023-8.464.039-12.7,0m-274.306.547c.654,2.011,1.3,4.031,1.815,6.2,1.16,2.327,2.409,4.886,4.152,5.449,1.7.709,3.28-1.248,4.529-3.244a27.634,27.634,0,0,0,1.755-5.749c.137-.624.414-1.857.55-2.482l-1.193-.678c-3.851.817-7.745-.116-11.608.509m38.133-.131c.177.347.538,1.025.719,1.372.2.254.59.771.787,1.033a4.179,4.179,0,0,0,3.7-.855c.265-.331.8-.986,1.06-1.31-2.072-.8-4.176-.146-6.264-.239m101.385.046c.466,4.978.02,10.427,1.413,14.951.626,2.181,1.413,4.878,2.827,5.248,2.228-.224,3.517-4.316,4.457-7.691,1.176-3.792,1.132-8.346,1.369-12.593-.9.008-1.8.023-2.7.092a6.54,6.54,0,0,1-4.244,2.821c.032-.67.088-1.341.132-2.011a5.9,5.9,0,0,0,2.634-.4c-.859-.385-1.715-.694-2.578-.986q-.385,1.225-.759,2.474c-.542-.64-1.072-1.272-1.606-1.919-.237,0-.711.015-.948.015m65.445.208a42.759,42.759,0,0,0,1.518,10c1.164,4.054,2.554,8.77,5.091,9.911,1.723.917,3.056-2.081,3.806-4.647,1.642-4.693,1.751-10.573,1.674-16.037-1.53.786-3.1.054-4.638.37-1.763.378-3.517-.339-5.276-.008-.723.154-1.562-.586-2.176.416m-171.7-.262c1.06,5.626,2.044,11.429,3.847,16.369.968,2.543,2.413,5.125,4.188,4.662,1.743-.748,2.767-3.938,3.533-6.774a69.926,69.926,0,0,0,2.321-14.3c-.747.015-1.49.054-2.232.116a21.171,21.171,0,0,1-2.293,3.129,6.188,6.188,0,0,1-3.092-.139,11.932,11.932,0,0,1-2.172-3.052c-1.369-.054-2.734-.046-4.1-.015m35.519-.008c1.2,5.641,2.2,12.623,5.276,15.536,1.285,1.5,2.738-.285,3.525-2.3,1.538-3.884,2.281-8.647,3.04-13.232-3.947-.039-7.894-.023-11.841-.008m34.507.023c.237,2.5.434,5.025.51,7.576,1.136,4.616,2.1,10.358,4.77,12.492,1.8,1.372,3.068-2.243,3.786-4.847,1.466-4.578,1.237-10.111,1.526-15.244-3.529-.015-7.059-.046-10.592.023m68.966-.015c.944,5.071,1.847,10.6,3.991,14.319,1.369,2.32,3.421,1.287,4.561-1.11,1.783-3.7,2.662-8.577,3.582-13.2-4.047-.046-8.091-.039-12.134-.008m8.488,15.436c-1.437,2.32-3.682,2.482-5.1.023-2.148-3.707-3.108-9.155-4.1-14.2.478,4.994.253,10.242,1.241,15.035.932,4.817,1.947,9.957,4.172,13.155.907-.085,1.923.4,2.742-.6a14.405,14.405,0,0,0,2.514-5.194,97.507,97.507,0,0,0,3.895-23.875l-.791.4c-1.285,5.271-2.108,11.437-4.569,15.251m59.462-15.436c.916,4.323,1.715,8.878,3.273,12.539.831,1.934,2.068,3.537,3.425,3.337,1.06-.331,1.863-1.919,2.457-3.545a73.96,73.96,0,0,0,2.755-12.323c-3.971-.046-7.942-.039-11.909-.008m65.682,0c.293,4.539,1.241,8.778,1.879,13.155,1.084,6.227,2.052,12.816,4.276,17.964,1,2.474,2.758,3.884,4.349,2.72,1.759-1.78,2.69-5.356,3.5-8.662,1.237-5.479,1.883-11.344,2.927-16.939a23.436,23.436,0,0,1,.1,4.354l-.341-.108c-.032.493-.1,1.48-.141,1.981-.526,3.121-1.028,6.258-1.582,9.363-1.02,4.323-2.02,9.548-4.513,11.421-2.2,1.41-4.373-1.418-5.537-4.855a95.633,95.633,0,0,1-3.879-17.794c-.257,4.023.289,7.976.426,11.968,1,16.369,1.835,32.8,3.232,49.068.582,6.5,1.2,13.024,2.309,19.282.514,2.713,1.068,5.734,2.469,7.206,1.614-3.753,2.188-8.593,2.779-13.209,2.012-17.209,2.771-34.834,3.875-52.3.253-6.851.735-13.664,1.016-20.515.076-2.574.875-5.479-.076-7.768q.416-3.19.843-6.373c-.394.039-1.18.108-1.57.146-.827,4.639-2.092,9.232-4.108,12.369-1.658,2.582-4.232,2.543-5.786-.347A36.974,36.974,0,0,1,373.3,165.9c-.952-.062-1.907-.077-2.851-.054m3.1.031c.759,4.47,1.9,8.97,3.807,12.038,1.393,2.358,3.638,2.2,5.083.085,2.068-2.967,3.361-7.514,4.152-12.146-4.349-.031-8.7-.077-13.042.023M64.1,165.111c.819,10.45,1.751,20.946,3.453,31.034.646,3.283,1.265,6.89,2.718,9.209.843,1.364,2.048.316,2.614-1.21,1.506-3.838,2.116-8.608,2.8-13.147.695-5.125,1.176-10.335,1.69-15.536a61.114,61.114,0,0,0,.458-10.011c-.112,3.853-1.614,6.566-2.4,9.9l-.393-.17c.008.563.028,1.68.036,2.243-.759,1.611-1.458,3.46-2.481,4.493a5.72,5.72,0,0,1-2.959.547c1.237-.8,2.8-.1,3.754-2.1a9.3,9.3,0,0,0,1.594-5.194c-1.554,3.245-4.316,4.162-6.26,1.711-.687-.655-1.317-2.166-2.16-1.6a31.668,31.668,0,0,0,3.276,6.836,17.721,17.721,0,0,1-3.927-11.267l-.606.848c.092-.447.269-1.333.357-1.78l-.466-.039q-.554-2.393-1.1-4.77m34.206,7.537c.94,13.9,1.891,27.836,3.485,41.523.719,5.556,1.405,11.352,3.244,16,1.2-.223,1.5-2.751,1.967-4.485,1.562-9.194,2.22-18.819,2.923-28.353.4-6.743.936-13.471,1.1-20.253-.859,4.038-1.863,8.747-4.055,10.735-1.514,1.464-3.365.347-4.561-1.734-2.056-3.553-3.06-8.654-4.1-13.433m253.712,6.921c-.161.971-.317,1.934-.47,2.9-1.02,5.649-2.1,12.223-5.107,15.074-.606-.008-1.209-.008-1.811.008-2.815-3.6-3.975-10.319-4.429-16.454a60.746,60.746,0,0,0,.133,9.9c.747,9.649,1.389,19.367,2.754,28.784.518,3.522,1.136,7.113,2.433,9.888,1.57-2.535,2.269-6.342,2.9-9.957,1.257-7.583,2-15.436,2.73-23.258.438-4.632.851-9.263,1.172-13.933.237-2.281.41-4.585.594-6.89-.305,1.31-.61,2.628-.9,3.946M273.06,205.7c.3,3.691,1.185,7.414,2.791,9.656.92,1.487,2.642.524,2.746-1.934.932-9.348,1.55-18.8,2.156-28.237-1.072,1.9-2.269,4.177-3.847,4.077-2.55.1-4.722-3.345-5.951-7.391.526,7.992,1.341,15.906,2.1,23.829M169.1,183.152c1.092,6,1.59,13.934,4.987,16.839a6.976,6.976,0,0,0,2.71-3.668c.426-3.691.466-7.5.759-11.228-.887,2-2,4.108-3.461,4.131-2.124-.015-3.79-3.013-4.995-6.073m176.446,5.4c-1.875.47-3.276-2.266-4.529-4.478.514,4.316,1.4,8.863,3.2,11.8,1.441,2.189,3.232-.162,4.156-2.489a36.944,36.944,0,0,0,2.405-10.627c-1.281,3.052-3.015,6.2-5.228,5.8m-137.35.732c-1.289.085-2.269-1.749-3.1-3.391.851,13.309,1.381,26.873,3.537,39.7,2.758-13.24,3.164-27.659,4.509-41.538-1.3,2.651-2.911,5.495-4.951,5.225m34.612,9.649c-2.441-.023-4.2-3.807-5.308-7.591.285,7.391.787,14.735,1.233,22.095.839,12.508,1.7,25.093,3.646,37.177.173.1.518.3.691.393q1.048-5.179,1.763-10.573c1.859-15.567,2.678-31.5,3.943-47.257.08-1.5.12-2.99.161-4.485-1.156,4.832-3.152,9.757-6.127,10.242m-72.708-.724c.907,9.6,1.53,19.49,3.662,28.445,1.787-8.924,2.245-18.55,2.967-27.936-1.024,1.8-2.55,2.774-3.859,1.564-1.642-1.911-2.485-5.5-2.975-8.924a50.541,50.541,0,0,0,.2,6.851m-23.895-2.851c-.94,4.994-1.795,10.381-3.815,14.211-1.064,2.15-2.923,2.952-4.252,1.241-1.791-2.073-2.369-6.142-3.317-9.456-.2-.2-.6-.609-.8-.817.084,3.291.133,6.589.313,9.864.932,21.332,1.743,42.718,3.566,63.864.542,4.578.739,9.5,2.024,13.61a133.458,133.458,0,0,0,2.152-15.945c1.217-13.533,1.9-27.212,2.59-40.868.542-11.9,1.144-23.79,1.542-35.7m171.512,1.426a65.26,65.26,0,0,1-3.341,14.727c-1.008,2.628-2.931,4.262-4.549,2.736-1.891-2.019-2.758-6.134-3.481-9.826l-.3.308c-.088-1.04-.181-2.073-.281-3.106-.028,1.3.044,2.6.145,3.892.185,3.607.032,7.26.409,10.828.305,11.876.96,23.705,1.405,35.566.9,14.2,1.253,28.7,3.433,42.456.731-1.087.691-3.229,1.016-4.778,2.1-16.638,2.827-33.77,3.77-50.748.626-14.011,1.47-28.006,1.771-42.055m-43.59,17.648a86.281,86.281,0,0,0,2.269,11.953c.133-.131.394-.393.522-.524.446-2.821.923-5.633,1.185-8.539l-1.329.216A6.332,6.332,0,0,1,274.128,214.433Z" transform="translate(20.92 71.88)" fill="#ec9e17"/>
      </g>
      <path id="Pfad_67" data-name="Pfad 67" d="M895.37,187.01Z" transform="translate(-555.62 -45.255)" fill="#ec9e17"/>
    </g>
  </g>
</svg>
